  0
SECTION
  2
HEADER
  9
$ACADVER
  1
AC1015
  9
$ACADMAINTVER
 70
     6
  9
$DWGCODEPAGE
  3
DOS932
  9
$INSBASE
 10
0.0
 20
0.0
 30
0.0
  9
$EXTMIN
 10
0.0
 20
0.0
 30
0.0
  9
$EXTMAX
 10
1189.0
 20
841.0
 30
0.0
  9
$LIMMIN
 10
0.0
 20
0.0
  9
$LIMMAX
 10
1189.0
 20
841.0
  9
$ORTHOMODE
 70
     0
  9
$REGENMODE
 70
     1
  9
$FILLMODE
 70
     1
  9
$QTEXTMODE
 70
     0
  9
$MIRRTEXT
 70
     1
  9
$LTSCALE
 40
1.0
  9
$ATTMODE
 70
     1
  9
$TEXTSIZE
 40
3.5
  9
$TRACEWID
 40
1.0
  9
$TEXTSTYLE
  7
Standard
  9
$CLAYER
  8
0
  9
$CELTYPE
  6
ByLayer
  9
$CECOLOR
 62
   256
  9
$CELTSCALE
 40
1.0
  9
$DISPSILH
 70
     0
  9
$DIMSCALE
 40
1.0
  9
$DIMASZ
 40
3.302
  9
$DIMEXO
 40
1.0
  9
$DIMDLI
 40
3.75
  9
$DIMRND
 40
0.0
  9
$DIMDLE
 40
0.0
  9
$DIMEXE
 40
1.0
  9
$DIMTP
 40
0.0
  9
$DIMTM
 40
0.0
  9
$DIMTXT
 40
3.5
  9
$DIMCEN
 40
2.5
  9
$DIMTSZ
 40
0.0
  9
$DIMTOL
 70
     0
  9
$DIMLIM
 70
     0
  9
$DIMTIH
 70
     1
  9
$DIMTOH
 70
     1
  9
$DIMSE1
 70
     0
  9
$DIMSE2
 70
     0
  9
$DIMTAD
 70
     1
  9
$DIMZIN
 70
     1
  9
$DIMBLK
  1

  9
$DIMASO
 70
     1
  9
$DIMSHO
 70
     1
  9
$DIMPOST
  1

  9
$DIMAPOST
  1

  9
$DIMALT
 70
     0
  9
$DIMALTD
 70
     3
  9
$DIMALTF
 40
0.0393700787
  9
$DIMLFAC
 40
0.5
  9
$DIMTOFL
 70
     1
  9
$DIMTVP
 40
0.0
  9
$DIMTIX
 70
     0
  9
$DIMSOXD
 70
     0
  9
$DIMSAH
 70
     0
  9
$DIMBLK1
  1

  9
$DIMBLK2
  1

  9
$DIMSTYLE
  2
ISO-25
  9
$DIMCLRD
 70
     0
  9
$DIMCLRE
 70
     0
  9
$DIMCLRT
 70
     0
  9
$DIMTFAC
 40
1.0
  9
$DIMGAP
 40
1.524
  9
$DIMJUST
 70
     0
  9
$DIMSD1
 70
     0
  9
$DIMSD2
 70
     0
  9
$DIMTOLJ
 70
     0
  9
$DIMTZIN
 70
     1
  9
$DIMALTZ
 70
     0
  9
$DIMALTTZ
 70
     0
  9
$DIMUPT
 70
     0
  9
$DIMDEC
 70
     2
  9
$DIMTDEC
 70
     2
  9
$DIMALTU
 70
     2
  9
$DIMALTTD
 70
     3
  9
$DIMTXSTY
  7
Standard
  9
$DIMAUNIT
 70
     0
  9
$DIMADEC
 70
     2
  9
$DIMALTRND
 40
0.0
  9
$DIMAZIN
 70
     0
  9
$DIMDSEP
 70
    44
  9
$DIMATFIT
 70
     3
  9
$DIMFRAC
 70
     0
  9
$DIMLDRBLK
  1

  9
$DIMLUNIT
 70
     2
  9
$DIMLWD
 70
    -2
  9
$DIMLWE
 70
    -2
  9
$DIMTMOVE
 70
     0
  9
$LUNITS
 70
     2
  9
$LUPREC
 70
     2
  9
$SKETCHINC
 40
1.0
  9
$FILLETRAD
 40
0.0
  9
$AUNITS
 70
     0
  9
$AUPREC
 70
     2
  9
$MENU
  1
.
  9
$ELEVATION
 40
0.0
  9
$PELEVATION
 40
0.0
  9
$THICKNESS
 40
0.0
  9
$LIMCHECK
 70
     0
  9
$CHAMFERA
 40
0.0
  9
$CHAMFERB
 40
0.0
  9
$CHAMFERC
 40
0.0
  9
$CHAMFERD
 40
0.0
  9
$SKPOLY
 70
     0
  9
$TDCREATE
 40
2460794.412789896
  9
$TDUCREATE
 40
2460794.079456563
  9
$TDUPDATE
 40
2460794.412792685
  9
$TDUUPDATE
 40
2460794.079459352
  9
$TDINDWG
 40
0.0000000116
  9
$TDUSRTIMER
 40
0.0000000116
  9
$USRTIMER
 70
     1
  9
$ANGBASE
 50
0.0
  9
$ANGDIR
 70
     0
  9
$PDMODE
 70
     0
  9
$PDSIZE
 40
-1.0
  9
$PLINEWID
 40
0.0
  9
$SPLFRAME
 70
     0
  9
$SPLINETYPE
 70
     6
  9
$SPLINESEGS
 70
     8
  9
$HANDSEED
  5
21F
  9
$SURFTAB1
 70
     6
  9
$SURFTAB2
 70
     6
  9
$SURFTYPE
 70
     6
  9
$SURFU
 70
     6
  9
$SURFV
 70
     6
  9
$UCSBASE
  2

  9
$UCSNAME
  2

  9
$UCSORG
 10
0.0
 20
0.0
 30
0.0
  9
$UCSXDIR
 10
1.0
 20
0.0
 30
0.0
  9
$UCSYDIR
 10
0.0
 20
1.0
 30
0.0
  9
$UCSORTHOREF
  2

  9
$UCSORTHOVIEW
 70
     0
  9
$UCSORGTOP
 10
0.0
 20
0.0
 30
0.0
  9
$UCSORGBOTTOM
 10
0.0
 20
0.0
 30
0.0
  9
$UCSORGLEFT
 10
0.0
 20
0.0
 30
0.0
  9
$UCSORGRIGHT
 10
0.0
 20
0.0
 30
0.0
  9
$UCSORGFRONT
 10
0.0
 20
0.0
 30
0.0
  9
$UCSORGBACK
 10
0.0
 20
0.0
 30
0.0
  9
$PUCSBASE
  2

  9
$PUCSNAME
  2

  9
$PUCSORG
 10
0.0
 20
0.0
 30
0.0
  9
$PUCSXDIR
 10
1.0
 20
0.0
 30
0.0
  9
$PUCSYDIR
 10
0.0
 20
1.0
 30
0.0
  9
$PUCSORTHOREF
  2

  9
$PUCSORTHOVIEW
 70
     0
  9
$PUCSORGTOP
 10
0.0
 20
0.0
 30
0.0
  9
$PUCSORGBOTTOM
 10
0.0
 20
0.0
 30
0.0
  9
$PUCSORGLEFT
 10
0.0
 20
0.0
 30
0.0
  9
$PUCSORGRIGHT
 10
0.0
 20
0.0
 30
0.0
  9
$PUCSORGFRONT
 10
0.0
 20
0.0
 30
0.0
  9
$PUCSORGBACK
 10
0.0
 20
0.0
 30
0.0
  9
$USERI1
 70
     0
  9
$USERI2
 70
     0
  9
$USERI3
 70
     0
  9
$USERI4
 70
     0
  9
$USERI5
 70
     0
  9
$USERR1
 40
0.0
  9
$USERR2
 40
0.0
  9
$USERR3
 40
0.0
  9
$USERR4
 40
0.0
  9
$USERR5
 40
0.0
  9
$WORLDVIEW
 70
     1
  9
$SHADEDGE
 70
     3
  9
$SHADEDIF
 70
    70
  9
$TILEMODE
 70
     1
  9
$MAXACTVP
 70
    64
  9
$PINSBASE
 10
0.0
 20
0.0
 30
0.0
  9
$PLIMCHECK
 70
     0
  9
$PEXTMIN
 10
1.0000000000E+20
 20
1.0000000000E+20
 30
1.0000000000E+20
  9
$PEXTMAX
 10
-1.0000000000E+20
 20
-1.0000000000E+20
 30
-1.0000000000E+20
  9
$PLIMMIN
 10
0.0
 20
0.0
  9
$PLIMMAX
 10
420.0
 20
297.0
  9
$UNITMODE
 70
     0
  9
$VISRETAIN
 70
     1
  9
$PLINEGEN
 70
     0
  9
$PSLTSCALE
 70
     1
  9
$TREEDEPTH
 70
  3020
  9
$CMLSTYLE
  2
Standard
  9
$CMLJUST
 70
     0
  9
$CMLSCALE
 40
20.0
  9
$PROXYGRAPHICS
 70
     1
  9
$MEASUREMENT
 70
     1
  9
$CELWEIGHT
370
    -1
  9
$ENDCAPS
280
     0
  9
$JOINSTYLE
280
     0
  9
$LWDISPLAY
290
     1
  9
$INSUNITS
 70
     4
  9
$HYPERLINKBASE
  1

  9
$STYLESHEET
  1

  9
$XEDIT
290
     1
  9
$CEPSNTYPE
380
     0
  9
$PSTYLEMODE
290
     1
  9
$FINGERPRINTGUID
  2
{01a18417-923c-4686-8b47-eeb252879644}
  9
$VERSIONGUID
  2
{FAEB1C32-E019-11D5-929B-00C0DF256EC4}
  9
$EXTNAMES
290
     1
  9
$PSVPSCALE
 40
0.0
  9
$OLESTARTUP
290
     0
  0
ENDSEC
  0
SECTION
  2
CLASSES
  0
CLASS
  1
ACDBDICTIONARYWDFLT
  2
AcDbDictionaryWithDefault
  3
ObjectDBX Classes
 90
        0
280
     0
281
     0
  0
CLASS
  1
VISUALSTYLE
  2
AcDbVisualStyle
  3
ObjectDBX Classes
 90
     4095
280
     0
281
     0
  0
CLASS
  1
MATERIAL
  2
AcDbMaterial
  3
ObjectDBX Classes
 90
     1153
280
     0
281
     0
  0
CLASS
  1
SCALE
  2
AcDbScale
  3
ObjectDBX Classes
 90
     1153
280
     0
281
     0
  0
CLASS
  1
TABLESTYLE
  2
AcDbTableStyle
  3
ObjectDBX Classes
 90
     4095
280
     0
281
     0
  0
CLASS
  1
MLEADERSTYLE
  2
AcDbMLeaderStyle
  3
ACDB_MLEADERSTYLE_CLASS
 90
     4095
280
     0
281
     0
  0
CLASS
  1
SUN
  2
AcDbSun
  3
SCENEOE
 90
     1153
280
     0
281
     0
  0
CLASS
  1
ACDBPLACEHOLDER
  2
AcDbPlaceHolder
  3
ObjectDBX Classes
 90
        0
280
     0
281
     0
  0
CLASS
  1
LAYOUT
  2
AcDbLayout
  3
ObjectDBX Classes
 90
        0
280
     0
281
     0
  0
ENDSEC
  0
SECTION
  2
TABLES
  0
TABLE
  2
VPORT
  5
8
330
0
100
AcDbSymbolTable
 70
     1
  0
VPORT
  5
29
330
8
100
AcDbSymbolTableRecord
100
AcDbViewportTableRecord
  2
*Active
 70
     0
 10
0.0
 20
0.0
 11
1.0
 21
1.0
 12
594.5
 22
420.5
 13
0.0
 23
0.0
 14
10.0
 24
10.0
 15
10.0
 25
10.0
 16
0.0
 26
0.0
 36
1.0
 17
0.0
 27
0.0
 37
0.0
 40
841.0
 41
1.4137931034
 42
50.0
 43
0.0
 44
0.0
 50
0.0
 51
0.0
 71
     0
 72
  2000
 73
     1
 74
     3
 75
     0
 76
     0
 77
     0
 78
     0
281
     0
 65
     1
110
0.0
120
0.0
130
0.0
111
1.0
121
0.0
131
0.0
112
0.0
122
1.0
132
0.0
 79
     0
146
0.0
  0
ENDTAB
  0
TABLE
  2
LTYPE
  5
5
330
0
100
AcDbSymbolTable
 70
     6
  0
LTYPE
  5
14
330
5
100
AcDbSymbolTableRecord
100
AcDbLinetypeTableRecord
  2
ByBlock
 70
     0
  3

 72
    65
 73
     0
 40
0.0
  0
LTYPE
  5
15
330
5
100
AcDbSymbolTableRecord
100
AcDbLinetypeTableRecord
  2
ByLayer
 70
     0
  3

 72
    65
 73
     0
 40
0.0
  0
LTYPE
  5
16
330
5
100
AcDbSymbolTableRecord
100
AcDbLinetypeTableRecord
  2
Continuous
 70
     0
  3
Solid line
 72
    65
 73
     0
 40
0.0
  0
LTYPE
  5
5E
330
5
100
AcDbSymbolTableRecord
100
AcDbLinetypeTableRecord
  2
HIDDEN
 70
     0
  3
Hidden __ __ __ __ __ __ __ __ __ __ __ __ __ __
 72
    65
 73
     2
 40
1.905
 49
1.27
 74
     0
 49
-0.635
 74
     0
  0
LTYPE
  5
5F
330
5
100
AcDbSymbolTableRecord
100
AcDbLinetypeTableRecord
  2
PHANTOM
 70
     0
  3
Phantom ______  __  __  ______  __  __  ______
 72
    65
 73
     6
 40
12.7
 49
6.35
 74
     0
 49
-1.27
 74
     0
 49
1.27
 74
     0
 49
-1.27
 74
     0
 49
1.27
 74
     0
 49
-1.27
 74
     0
  0
LTYPE
  5
60
330
5
100
AcDbSymbolTableRecord
100
AcDbLinetypeTableRecord
  2
CENTER
 70
     0
  3
Center ____ _ ____ _ ____ _ ____ _ ____ _ ____
 72
    65
 73
     4
 40
10.16
 49
6.35
 74
     0
 49
-1.27
 74
     0
 49
1.27
 74
     0
 49
-1.27
 74
     0
  0
LTYPE
  5
61
330
5
100
AcDbSymbolTableRecord
100
AcDbLinetypeTableRecord
  2
CENTERX2
 70
     0
  3
Center (2x) ________  __  ________  __  _____
 72
    65
 73
     4
 40
20.32
 49
12.7
 74
     0
 49
-2.54
 74
     0
 49
2.54
 74
     0
 49
-2.54
 74
     0
  0
LTYPE
  5
62
330
5
100
AcDbSymbolTableRecord
100
AcDbLinetypeTableRecord
  2
DOT2
 70
     0
  3
Dot (.5x) ........................................
 72
    65
 73
     2
 40
0.635
 49
0.0
 74
     0
 49
-0.635
 74
     0
  0
ENDTAB
  0
TABLE
  2
LAYER
  5
2
330
0
100
AcDbSymbolTable
 70
     2
  0
LAYER
  5
10
330
2
100
AcDbSymbolTableRecord
100
AcDbLayerTableRecord
  2
0
 70
     0
 62
     7
  6
Continuous
370
    -3
390
F
  0
LAYER
  5
63
330
2
100
AcDbSymbolTableRecord
100
AcDbLayerTableRecord
  2
FORMAT
 70
     0
 62
     7
  6
Continuous
370
    -3
390
F
  0
ENDTAB
  0
TABLE
  2
STYLE
  5
3
330
0
100
AcDbSymbolTable
 70
     3
  0
STYLE
  5
11
330
3
100
AcDbSymbolTableRecord
100
AcDbTextStyleTableRecord
  2
Standard
 70
     0
 40
0.0
 41
1.0
 50
0.0
 71
     0
 42
3.5
  3
txt
  4
bigfont
  0
STYLE
  5
D5
330
3
100
AcDbSymbolTableRecord
100
AcDbTextStyleTableRecord
  2
SLDTEXTSTYLE0
 70
     0
 40
0.0
 41
0.75
 50
0.0
 71
     0
 42
3.5
  3
TXT
  4
bigfont
  0
STYLE
  5
129
330
3
100
AcDbSymbolTableRecord
100
AcDbTextStyleTableRecord
  2
SLDTEXTSTYLE1
 70
     0
 40
0.0
 41
0.65625
 50
0.0
 71
     0
 42
3.5
  3
TXT
  4
bigfont
  0
ENDTAB
  0
TABLE
  2
VIEW
  5
6
330
0
100
AcDbSymbolTable
 70
     0
  0
ENDTAB
  0
TABLE
  2
UCS
  5
7
330
0
100
AcDbSymbolTable
 70
     0
  0
ENDTAB
  0
TABLE
  2
APPID
  5
9
330
0
100
AcDbSymbolTable
 70
     1
  0
APPID
  5
12
330
9
100
AcDbSymbolTableRecord
100
AcDbRegAppTableRecord
  2
ACAD
 70
     0
  0
ENDTAB
  0
TABLE
  2
DIMSTYLE
  5
A
330
0
100
AcDbSymbolTable
 70
     4
100
AcDbDimStyleTable
  0
DIMSTYLE
105
27
330
A
100
AcDbSymbolTableRecord
100
AcDbDimStyleTableRecord
  2
ISO-25
 70
     0
 41
2.5
 42
0.625
 43
3.75
 44
1.25
 73
     0
 74
     0
 77
     1
 78
     8
140
2.5
141
2.5
143
0.0393700787
147
0.625
171
     3
172
     1
178
     0
271
     2
272
     2
274
     3
278
    44
283
     0
284
     8
340
11
  0
DIMSTYLE
105
153
102
{ACAD_REACTORS
330
152
102
}
330
A
100
AcDbSymbolTableRecord
100
AcDbDimStyleTableRecord
  2
SLDDIMSTYLE0
 70
     0
 41
3.302
 44
0.0
 45
0.000000001
 73
     0
 74
     0
 77
     1
 78
     4
 79
     1
140
3.5
144
0.5
147
0.875
173
     1
178
     0
271
     2
272
     2
276
     2
284
    12
340
D5
  0
DIMSTYLE
105
15E
102
{ACAD_REACTORS
330
15D
330
1A8
330
1EC
102
}
330
A
100
AcDbSymbolTableRecord
100
AcDbDimStyleTableRecord
  2
SLDDIMSTYLE1
 70
     0
 41
3.302
 44
0.0
 45
0.000000001
 73
     0
 74
     0
 77
     1
 78
    12
 79
     3
140
3.5
144
0.5
147
0.875
173
     1
178
     0
271
     2
272
     2
276
     2
284
    12
340
D5
  0
DIMSTYLE
105
169
102
{ACAD_REACTORS
330
168
330
1B2
330
1BB
102
}
330
A
100
AcDbSymbolTableRecord
100
AcDbDimStyleTableRecord
  2
SLDDIMSTYLE2
 70
     0
 41
3.302
 44
0.0
 45
0.000000001
 73
     0
 74
     0
 77
     1
 78
     4
 79
     1
140
3.5
141
0.0
144
0.5
147
0.875
172
     1
173
     1
178
     0
271
     2
272
     2
276
     2
284
    12
340
D5
341
16A
343
16A
  0
ENDTAB
  0
TABLE
  2
BLOCK_RECORD
  5
1
330
0
100
AcDbSymbolTable
 70
    14
  0
BLOCK_RECORD
  5
1F
330
1
100
AcDbSymbolTableRecord
100
AcDbBlockTableRecord
  2
*Model_Space
340
22
  0
BLOCK_RECORD
  5
1B
330
1
100
AcDbSymbolTableRecord
100
AcDbBlockTableRecord
  2
*Paper_Space
340
1E
  0
BLOCK_RECORD
  5
23
330
1
100
AcDbSymbolTableRecord
100
AcDbBlockTableRecord
  2
*Paper_Space0
340
26
  0
BLOCK_RECORD
  5
154
330
1
100
AcDbSymbolTableRecord
100
AcDbBlockTableRecord
  2
_D
340
0
  0
BLOCK_RECORD
  5
15F
330
1
100
AcDbSymbolTableRecord
100
AcDbBlockTableRecord
  2
_D_1
340
0
  0
BLOCK_RECORD
  5
16A
330
1
100
AcDbSymbolTableRecord
100
AcDbBlockTableRecord
  2
_None
340
0
  0
BLOCK_RECORD
  5
16D
330
1
100
AcDbSymbolTableRecord
100
AcDbBlockTableRecord
  2
_D_2
340
0
  0
BLOCK_RECORD
  5
175
330
1
100
AcDbSymbolTableRecord
100
AcDbBlockTableRecord
  2
SW_CENTERMARKSYMBOL_0
340
0
102
{BLKREFS
331
180
102
}
  0
BLOCK_RECORD
  5
181
330
1
100
AcDbSymbolTableRecord
100
AcDbBlockTableRecord
  2
SW_CENTERMARKSYMBOL_1
340
0
102
{BLKREFS
331
18C
102
}
  0
BLOCK_RECORD
  5
18D
330
1
100
AcDbSymbolTableRecord
100
AcDbBlockTableRecord
  2
SW_CENTERMARKSYMBOL_2
340
0
102
{BLKREFS
331
198
102
}
  0
BLOCK_RECORD
  5
1A9
330
1
100
AcDbSymbolTableRecord
100
AcDbBlockTableRecord
  2
_D_3
340
0
  0
BLOCK_RECORD
  5
1B3
330
1
100
AcDbSymbolTableRecord
100
AcDbBlockTableRecord
  2
_D_4
340
0
  0
BLOCK_RECORD
  5
1BC
330
1
100
AcDbSymbolTableRecord
100
AcDbBlockTableRecord
  2
_D_5
340
0
  0
BLOCK_RECORD
  5
1C4
330
1
100
AcDbSymbolTableRecord
100
AcDbBlockTableRecord
  2
SW_CENTERMARKSYMBOL_3
340
0
102
{BLKREFS
331
1CF
102
}
  0
BLOCK_RECORD
  5
1D0
330
1
100
AcDbSymbolTableRecord
100
AcDbBlockTableRecord
  2
SW_CENTERMARKSYMBOL_4
340
0
102
{BLKREFS
331
1DB
102
}
  0
BLOCK_RECORD
  5
1ED
330
1
100
AcDbSymbolTableRecord
100
AcDbBlockTableRecord
  2
_D_6
340
0
  0
ENDTAB
  0
ENDSEC
  0
SECTION
  2
BLOCKS
  0
BLOCK
  5
20
330
1F
100
AcDbEntity
  8
0
100
AcDbBlockBegin
  2
*Model_Space
 70
     0
 10
0.0
 20
0.0
 30
0.0
  3
*Model_Space
  1

  0
ENDBLK
  5
21
330
1F
100
AcDbEntity
  8
0
100
AcDbBlockEnd
  0
BLOCK
  5
1C
330
1B
100
AcDbEntity
 67
     1
  8
0
100
AcDbBlockBegin
  2
*Paper_Space
 70
     0
 10
0.0
 20
0.0
 30
0.0
  3
*Paper_Space
  1

  0
ENDBLK
  5
1D
330
1B
100
AcDbEntity
 67
     1
  8
0
100
AcDbBlockEnd
  0
BLOCK
  5
24
330
23
100
AcDbEntity
  8
0
100
AcDbBlockBegin
  2
*Paper_Space0
 70
     0
 10
0.0
 20
0.0
 30
0.0
  3
*Paper_Space0
  1

  0
ENDBLK
  5
25
330
23
100
AcDbEntity
  8
0
100
AcDbBlockEnd
  0
BLOCK
  5
155
330
154
100
AcDbEntity
  8
0
100
AcDbBlockBegin
  2
_D
 70
     0
 10
0.0
 20
0.0
 30
0.0
  3
_D
  1

  0
SOLID
  5
157
330
154
100
AcDbEntity
  8
0
  6
Continuous
 62
     7
370
    18
100
AcDbTrace
 10
540.3670079631
 20
527.9144042608
 30
0.0
 11
540.8750079631
 21
531.2164042608
 31
0.0
 12
539.8590079631
 22
531.2164042608
 32
0.0
 13
539.8590079631
 23
531.2164042608
 33
0.0
  0
SOLID
  5
158
330
154
100
AcDbEntity
  8
0
  6
Continuous
 62
     7
370
    18
100
AcDbTrace
 10
540.3670079631
 20
727.9144042608
 30
0.0
 11
539.8590079631
 21
724.6124042608
 31
0.0
 12
540.8750079631
 22
724.6124042608
 32
0.0
 13
540.8750079631
 23
724.6124042608
 33
0.0
  0
LINE
  5
159
330
154
100
AcDbEntity
  8
0
  6
Continuous
 62
     7
370
     0
100
AcDbLine
 10
465.3670079631
 20
527.9144042608
 30
0.0
 11
541.3670079631
 21
527.9144042608
 31
0.0
  0
LINE
  5
15A
330
154
100
AcDbEntity
  8
0
  6
Continuous
 62
     7
370
     0
100
AcDbLine
 10
465.3670079631
 20
727.9144042608
 30
0.0
 11
541.3670079631
 21
727.9144042608
 31
0.0
  0
LINE
  5
15B
330
154
100
AcDbEntity
  8
0
  6
Continuous
 62
     7
370
     0
100
AcDbLine
 10
540.3670079631
 20
527.9144042608
 30
0.0
 11
540.3670079631
 21
727.9144042608
 31
0.0
  0
MTEXT
  5
15C
330
154
100
AcDbEntity
  8
0
  6
Continuous
 62
     7
370
    18
100
AcDbMText
 10
535.8552710485
 20
633.5557480675
 30
0.0
 40
3.5
 41
0.0
 71
     1
 72
     1
  1
100.00
  7
SLDTEXTSTYLE0
 11
6.123233995736766E-17
 21
1.0
 31
0.0
 73
     1
 44
1.0
  0
ENDBLK
  5
156
330
154
100
AcDbEntity
  8
0
100
AcDbBlockEnd
  0
BLOCK
  5
160
330
15F
100
AcDbEntity
  8
0
100
AcDbBlockBegin
  2
_D_1
 70
     0
 10
0.0
 20
0.0
 30
0.0
  3
_D_1
  1

  0
SOLID
  5
162
330
15F
100
AcDbEntity
  8
0
  6
Continuous
 62
     7
370
    18
100
AcDbTrace
 10
464.3670079631
 20
785.9144042608
 30
0.0
 11
461.0650079631
 21
786.4224042608
 31
0.0
 12
461.0650079631
 22
785.4064042608
 32
0.0
 13
461.0650079631
 23
785.4064042608
 33
0.0
  0
SOLID
  5
163
330
15F
100
AcDbEntity
  8
0
  6
Continuous
 62
     7
370
    18
100
AcDbTrace
 10
261.6829808246
 20
785.9144042608
 30
0.0
 11
264.9849808246
 21
785.4064042608
 31
0.0
 12
264.9849808246
 22
786.4224042608
 32
0.0
 13
264.9849808246
 23
786.4224042608
 33
0.0
  0
LINE
  5
164
330
15F
100
AcDbEntity
  8
0
  6
Continuous
 62
     7
370
     0
100
AcDbLine
 10
464.3670079631
 20
728.9144042608
 30
0.0
 11
464.3670079631
 21
786.9144042608
 31
0.0
  0
LINE
  5
165
330
15F
100
AcDbEntity
  8
0
  6
Continuous
 62
     7
370
     0
100
AcDbLine
 10
261.6829808246
 20
728.9144042608
 30
0.0
 11
261.6829808246
 21
786.9144042608
 31
0.0
  0
LINE
  5
166
330
15F
100
AcDbEntity
  8
0
  6
Continuous
 62
     7
370
     0
100
AcDbLine
 10
464.3670079631
 20
785.9144042608
 30
0.0
 11
261.6829808246
 21
785.9144042608
 31
0.0
  0
MTEXT
  5
167
330
15F
100
AcDbEntity
  8
0
  6
Continuous
 62
     7
370
    18
100
AcDbMText
 10
379.3938458808
 20
790.4261411754
 30
0.0
 40
3.5
 41
0.0
 71
     1
 72
     1
  1
101.34
  7
SLDTEXTSTYLE0
 73
     1
 44
1.0
  0
ENDBLK
  5
161
330
15F
100
AcDbEntity
  8
0
100
AcDbBlockEnd
  0
BLOCK
  5
16B
330
16A
100
AcDbEntity
  8
0
100
AcDbBlockBegin
  2
_None
 70
     0
 10
0.0
 20
0.0
 30
0.0
  3
_None
  1

  0
ENDBLK
  5
16C
330
16A
100
AcDbEntity
  8
0
100
AcDbBlockEnd
  0
BLOCK
  5
16E
330
16D
100
AcDbEntity
  8
0
100
AcDbBlockBegin
  2
_D_2
 70
     0
 10
0.0
 20
0.0
 30
0.0
  3
_D_2
  1

  0
SOLID
  5
170
330
16D
100
AcDbEntity
  8
0
  6
Continuous
 62
     7
370
    18
100
AcDbTrace
 10
381.6880401629
 20
644.5271055322
 30
0.0
 11
384.4227610199
 21
646.446107834
 31
0.0
 12
383.7194899995
 22
647.1793648637
 32
0.0
 13
383.7194899995
 23
647.1793648637
 33
0.0
  0
LINE
  5
171
330
16D
100
AcDbEntity
  8
0
  6
Continuous
 62
     7
370
     0
100
AcDbLine
 10
381.6880401629
 20
644.5271055322
 30
0.0
 11
421.9850723228
 21
683.1762200699
 31
0.0
  0
LINE
  5
172
330
16D
100
AcDbEntity
  8
0
  6
Continuous
 62
     7
370
     0
100
AcDbLine
 10
381.6880401629
 20
644.5271055322
 30
0.0
 11
347.0459757633
 21
611.3017029893
 31
0.0
  0
MTEXT
  5
173
330
16D
100
AcDbEntity
  8
0
  6
Continuous
 62
     7
370
    18
100
AcDbMText
 10
406.6551654283
 20
674.721683025
 30
0.0
 40
3.5
 41
0.0
 71
     1
 72
     1
  1
%%c
  7
SLDTEXTSTYLE0
 11
0.7217096749905023
 21
0.6921958863104457
 31
0.0
 73
     1
 44
1.0
  0
MTEXT
  5
174
330
16D
100
AcDbEntity
  8
0
  6
Continuous
 62
     7
370
    18
100
AcDbMText
 10
410.4276515468
 20
678.4139870655
 30
0.0
 40
3.5
 41
0.0
 71
     1
 72
     1
  1
24.00
  7
SLDTEXTSTYLE0
 11
0.7217096749905023
 21
0.6921958863104457
 31
0.0
 73
     1
 44
1.0
  0
ENDBLK
  5
16F
330
16D
100
AcDbEntity
  8
0
100
AcDbBlockEnd
  0
BLOCK
  5
176
330
175
100
AcDbEntity
  8
0
100
AcDbBlockBegin
  2
SW_CENTERMARKSYMBOL_0
 70
     0
 10
0.0
 20
0.0
 30
0.0
  3
SW_CENTERMARKSYMBOL_0
  1

  0
LINE
  5
178
330
175
100
AcDbEntity
  8
0
  6
Continuous
 62
     0
370
    18
100
AcDbLine
 10
0.0
 20
0.0
 30
0.0
 11
0.0
 21
5.0
 31
0.0
  0
LINE
  5
179
330
175
100
AcDbEntity
  8
0
  6
Continuous
 62
     0
370
    18
100
AcDbLine
 10
0.0
 20
0.0
 30
0.0
 11
-5.0
 21
0.0
 31
0.0
  0
LINE
  5
17A
330
175
100
AcDbEntity
  8
0
  6
Continuous
 62
     0
370
    18
100
AcDbLine
 10
0.0
 20
0.0
 30
0.0
 11
0.0
 21
-5.0
 31
0.0
  0
LINE
  5
17B
330
175
100
AcDbEntity
  8
0
  6
Continuous
 62
     0
370
    18
100
AcDbLine
 10
0.0
 20
0.0
 30
0.0
 11
5.0
 21
0.0
 31
0.0
  0
LINE
  5
17C
330
175
100
AcDbEntity
  8
0
  6
Continuous
 62
     0
370
    18
100
AcDbLine
 10
0.0
 20
10.0
 30
0.0
 11
0.0
 21
29.0
 31
0.0
  0
LINE
  5
17D
330
175
100
AcDbEntity
  8
0
  6
Continuous
 62
     0
370
    18
100
AcDbLine
 10
-10.0
 20
0.0
 30
0.0
 11
-29.0
 21
0.0
 31
0.0
  0
LINE
  5
17E
330
175
100
AcDbEntity
  8
0
  6
Continuous
 62
     0
370
    18
100
AcDbLine
 10
0.0
 20
-10.0
 30
0.0
 11
0.0
 21
-29.0
 31
0.0
  0
LINE
  5
17F
330
175
100
AcDbEntity
  8
0
  6
Continuous
 62
     0
370
    18
100
AcDbLine
 10
10.0
 20
0.0
 30
0.0
 11
29.0
 21
0.0
 31
0.0
  0
ENDBLK
  5
177
330
175
100
AcDbEntity
  8
0
100
AcDbBlockEnd
  0
BLOCK
  5
182
330
181
100
AcDbEntity
  8
0
100
AcDbBlockBegin
  2
SW_CENTERMARKSYMBOL_1
 70
     0
 10
0.0
 20
0.0
 30
0.0
  3
SW_CENTERMARKSYMBOL_1
  1

  0
LINE
  5
184
330
181
100
AcDbEntity
  8
0
  6
Continuous
 62
     0
370
    18
100
AcDbLine
 10
0.0
 20
0.0
 30
0.0
 11
0.0
 21
5.0
 31
0.0
  0
LINE
  5
185
330
181
100
AcDbEntity
  8
0
  6
Continuous
 62
     0
370
    18
100
AcDbLine
 10
0.0
 20
0.0
 30
0.0
 11
-5.0
 21
0.0
 31
0.0
  0
LINE
  5
186
330
181
100
AcDbEntity
  8
0
  6
Continuous
 62
     0
370
    18
100
AcDbLine
 10
0.0
 20
0.0
 30
0.0
 11
0.0
 21
-5.0
 31
0.0
  0
LINE
  5
187
330
181
100
AcDbEntity
  8
0
  6
Continuous
 62
     0
370
    18
100
AcDbLine
 10
0.0
 20
0.0
 30
0.0
 11
5.0
 21
0.0
 31
0.0
  0
LINE
  5
188
330
181
100
AcDbEntity
  8
0
  6
Continuous
 62
     0
370
    18
100
AcDbLine
 10
0.0
 20
10.0
 30
0.0
 11
0.0
 21
15.0
 31
0.0
  0
LINE
  5
189
330
181
100
AcDbEntity
  8
0
  6
Continuous
 62
     0
370
    18
100
AcDbLine
 10
-10.0
 20
0.0
 30
0.0
 11
-15.0
 21
0.0
 31
0.0
  0
LINE
  5
18A
330
181
100
AcDbEntity
  8
0
  6
Continuous
 62
     0
370
    18
100
AcDbLine
 10
0.0
 20
-10.0
 30
0.0
 11
0.0
 21
-15.0
 31
0.0
  0
LINE
  5
18B
330
181
100
AcDbEntity
  8
0
  6
Continuous
 62
     0
370
    18
100
AcDbLine
 10
10.0
 20
0.0
 30
0.0
 11
15.0
 21
0.0
 31
0.0
  0
ENDBLK
  5
183
330
181
100
AcDbEntity
  8
0
100
AcDbBlockEnd
  0
BLOCK
  5
18E
330
18D
100
AcDbEntity
  8
0
100
AcDbBlockBegin
  2
SW_CENTERMARKSYMBOL_2
 70
     0
 10
0.0
 20
0.0
 30
0.0
  3
SW_CENTERMARKSYMBOL_2
  1

  0
LINE
  5
190
330
18D
100
AcDbEntity
  8
0
  6
Continuous
 62
     0
370
    18
100
AcDbLine
 10
0.0
 20
0.0
 30
0.0
 11
0.0
 21
5.0
 31
0.0
  0
LINE
  5
191
330
18D
100
AcDbEntity
  8
0
  6
Continuous
 62
     0
370
    18
100
AcDbLine
 10
0.0
 20
0.0
 30
0.0
 11
-5.0
 21
0.0
 31
0.0
  0
LINE
  5
192
330
18D
100
AcDbEntity
  8
0
  6
Continuous
 62
     0
370
    18
100
AcDbLine
 10
0.0
 20
0.0
 30
0.0
 11
0.0
 21
-5.0
 31
0.0
  0
LINE
  5
193
330
18D
100
AcDbEntity
  8
0
  6
Continuous
 62
     0
370
    18
100
AcDbLine
 10
0.0
 20
0.0
 30
0.0
 11
5.0
 21
0.0
 31
0.0
  0
LINE
  5
194
330
18D
100
AcDbEntity
  8
0
  6
Continuous
 62
     0
370
    18
100
AcDbLine
 10
0.0
 20
10.0
 30
0.0
 11
0.0
 21
15.0
 31
0.0
  0
LINE
  5
195
330
18D
100
AcDbEntity
  8
0
  6
Continuous
 62
     0
370
    18
100
AcDbLine
 10
-10.0
 20
0.0
 30
0.0
 11
-15.0
 21
0.0
 31
0.0
  0
LINE
  5
196
330
18D
100
AcDbEntity
  8
0
  6
Continuous
 62
     0
370
    18
100
AcDbLine
 10
0.0
 20
-10.0
 30
0.0
 11
0.0
 21
-15.0
 31
0.0
  0
LINE
  5
197
330
18D
100
AcDbEntity
  8
0
  6
Continuous
 62
     0
370
    18
100
AcDbLine
 10
10.0
 20
0.0
 30
0.0
 11
15.0
 21
0.0
 31
0.0
  0
ENDBLK
  5
18F
330
18D
100
AcDbEntity
  8
0
100
AcDbBlockEnd
  0
BLOCK
  5
1AA
330
1A9
100
AcDbEntity
  8
0
100
AcDbBlockBegin
  2
_D_3
 70
     0
 10
0.0
 20
0.0
 30
0.0
  3
_D_3
  1

  0
SOLID
  5
1AC
330
1A9
100
AcDbEntity
  8
0
  6
Continuous
 62
     7
370
    18
100
AcDbTrace
 10
824.0935553804
 20
790.9010005534
 30
0.0
 11
827.3955553804
 21
790.3930005534
 31
0.0
 12
827.3955553804
 22
791.4090005534
 32
0.0
 13
827.3955553804
 23
791.4090005534
 33
0.0
  0
SOLID
  5
1AD
330
1A9
100
AcDbEntity
  8
0
  6
Continuous
 62
     7
370
    18
100
AcDbTrace
 10
905.5667553804
 20
790.9010005534
 30
0.0
 11
902.2647553804
 21
791.4090005534
 31
0.0
 12
902.2647553804
 22
790.3930005534
 32
0.0
 13
902.2647553804
 23
790.3930005534
 33
0.0
  0
LINE
  5
1AE
330
1A9
100
AcDbEntity
  8
0
  6
Continuous
 62
     7
370
     0
100
AcDbLine
 10
824.0935553804
 20
728.9144042608
 30
0.0
 11
824.0935553804
 21
791.9010005534
 31
0.0
  0
LINE
  5
1AF
330
1A9
100
AcDbEntity
  8
0
  6
Continuous
 62
     7
370
     0
100
AcDbLine
 10
905.5667553804
 20
728.9144042608
 30
0.0
 11
905.5667553804
 21
791.9010005534
 31
0.0
  0
LINE
  5
1B0
330
1A9
100
AcDbEntity
  8
0
  6
Continuous
 62
     7
370
     0
100
AcDbLine
 10
824.0935553804
 20
790.9010005534
 30
0.0
 11
905.5667553804
 21
790.9010005534
 31
0.0
  0
MTEXT
  5
1B1
330
1A9
100
AcDbEntity
  8
0
  6
Continuous
 62
     7
370
    18
100
AcDbMText
 10
859.3188363554
 20
795.412737468
 30
0.0
 40
3.5
 41
0.0
 71
     1
 72
     1
  1
40.74
  7
SLDTEXTSTYLE0
 73
     1
 44
1.0
  0
ENDBLK
  5
1AB
330
1A9
100
AcDbEntity
  8
0
100
AcDbBlockEnd
  0
BLOCK
  5
1B4
330
1B3
100
AcDbEntity
  8
0
100
AcDbBlockBegin
  2
_D_4
 70
     0
 10
0.0
 20
0.0
 30
0.0
  3
_D_4
  1

  0
SOLID
  5
1B6
330
1B3
100
AcDbEntity
  8
0
  6
Continuous
 62
     7
370
    18
100
AcDbTrace
 10
874.3210270547
 20
699.5300555496
 30
0.0
 11
876.8036676629
 21
701.7656233993
 31
0.0
 12
876.0169008823
 22
702.408471774
 32
0.0
 13
876.0169008823
 23
702.408471774
 33
0.0
  0
LINE
  5
1B7
330
1B3
100
AcDbEntity
  8
0
  6
Continuous
 62
     7
370
     0
100
AcDbLine
 10
874.3210270547
 20
699.5300555496
 30
0.0
 11
888.6642206012
 21
717.0843477498
 31
0.0
  0
LINE
  5
1B8
330
1B3
100
AcDbEntity
  8
0
  6
Continuous
 62
     7
370
     0
100
AcDbLine
 10
874.3210270547
 20
699.5300555496
 30
0.0
 11
855.3392837062
 21
676.298752972
 31
0.0
  0
MTEXT
  5
1B9
330
1B3
100
AcDbEntity
  8
0
  6
Continuous
 62
     7
370
    18
100
AcDbMText
 10
874.4771581152
 20
706.8316743667
 30
0.0
 40
3.5
 41
0.0
 71
     1
 72
     1
  1
%%c
  7
SLDTEXTSTYLE0
 11
0.6327247782830587
 21
0.7743767525866554
 31
0.0
 73
     1
 44
1.0
  0
MTEXT
  5
1BA
330
1B3
100
AcDbEntity
  8
0
  6
Continuous
 62
     7
370
    18
100
AcDbMText
 10
877.7755486373
 20
710.9530067491
 30
0.0
 40
3.5
 41
0.0
 71
     1
 72
     1
  1
15.00
  7
SLDTEXTSTYLE0
 11
0.6327247782830587
 21
0.7743767525866554
 31
0.0
 73
     1
 44
1.0
  0
ENDBLK
  5
1B5
330
1B3
100
AcDbEntity
  8
0
100
AcDbBlockEnd
  0
BLOCK
  5
1BD
330
1BC
100
AcDbEntity
  8
0
100
AcDbBlockBegin
  2
_D_5
 70
     0
 10
0.0
 20
0.0
 30
0.0
  3
_D_5
  1

  0
SOLID
  5
1BF
330
1BC
100
AcDbEntity
  8
0
  6
Continuous
 62
     7
370
    18
100
AcDbTrace
 10
874.472461252
 20
579.4046582823
 30
0.0
 11
876.9841907874
 21
581.6074934421
 31
0.0
 12
876.2059175817
 22
582.2605989598
 32
0.0
 13
876.2059175817
 23
582.2605989598
 33
0.0
  0
LINE
  5
1C0
330
1BC
100
AcDbEntity
  8
0
  6
Continuous
 62
     7
370
     0
100
AcDbLine
 10
874.472461252
 20
579.4046582823
 30
0.0
 11
890.8450661613
 21
598.9150733126
 31
0.0
  0
LINE
  5
1C1
330
1BC
100
AcDbEntity
  8
0
  6
Continuous
 62
     7
370
     0
100
AcDbLine
 10
874.472461252
 20
579.4046582823
 30
0.0
 11
855.1878495089
 21
556.4241502393
 31
0.0
  0
MTEXT
  5
1C2
330
1BC
100
AcDbEntity
  8
0
  6
Continuous
 62
     7
370
    18
100
AcDbMText
 10
876.5232278984
 20
588.8505853653
 30
0.0
 40
3.5
 41
0.0
 71
     1
 72
     1
  1
%%c
  7
SLDTEXTSTYLE0
 11
0.6428203914364535
 21
0.7660169347693853
 31
0.0
 73
     1
 44
1.0
  0
MTEXT
  5
1C3
330
1BC
100
AcDbEntity
  8
0
  6
Continuous
 62
     7
370
    18
100
AcDbMText
 10
879.8753545001
 20
592.9283308071
 30
0.0
 40
3.5
 41
0.0
 71
     1
 72
     1
  1
15.00
  7
SLDTEXTSTYLE0
 11
0.6428203914364535
 21
0.7660169347693853
 31
0.0
 73
     1
 44
1.0
  0
ENDBLK
  5
1BE
330
1BC
100
AcDbEntity
  8
0
100
AcDbBlockEnd
  0
BLOCK
  5
1C5
330
1C4
100
AcDbEntity
  8
0
100
AcDbBlockBegin
  2
SW_CENTERMARKSYMBOL_3
 70
     0
 10
0.0
 20
0.0
 30
0.0
  3
SW_CENTERMARKSYMBOL_3
  1

  0
LINE
  5
1C7
330
1C4
100
AcDbEntity
  8
0
  6
Continuous
 62
     0
370
    18
100
AcDbLine
 10
0.0
 20
0.0
 30
0.0
 11
0.0
 21
5.0
 31
0.0
  0
LINE
  5
1C8
330
1C4
100
AcDbEntity
  8
0
  6
Continuous
 62
     0
370
    18
100
AcDbLine
 10
0.0
 20
0.0
 30
0.0
 11
-5.0
 21
0.0
 31
0.0
  0
LINE
  5
1C9
330
1C4
100
AcDbEntity
  8
0
  6
Continuous
 62
     0
370
    18
100
AcDbLine
 10
0.0
 20
0.0
 30
0.0
 11
0.0
 21
-5.0
 31
0.0
  0
LINE
  5
1CA
330
1C4
100
AcDbEntity
  8
0
  6
Continuous
 62
     0
370
    18
100
AcDbLine
 10
0.0
 20
0.0
 30
0.0
 11
5.0
 21
0.0
 31
0.0
  0
LINE
  5
1CB
330
1C4
100
AcDbEntity
  8
0
  6
Continuous
 62
     0
370
    18
100
AcDbLine
 10
0.0
 20
10.0
 30
0.0
 11
0.0
 21
20.0
 31
0.0
  0
LINE
  5
1CC
330
1C4
100
AcDbEntity
  8
0
  6
Continuous
 62
     0
370
    18
100
AcDbLine
 10
-10.0
 20
0.0
 30
0.0
 11
-20.0
 21
0.0
 31
0.0
  0
LINE
  5
1CD
330
1C4
100
AcDbEntity
  8
0
  6
Continuous
 62
     0
370
    18
100
AcDbLine
 10
0.0
 20
-10.0
 30
0.0
 11
0.0
 21
-20.0
 31
0.0
  0
LINE
  5
1CE
330
1C4
100
AcDbEntity
  8
0
  6
Continuous
 62
     0
370
    18
100
AcDbLine
 10
10.0
 20
0.0
 30
0.0
 11
20.0
 21
0.0
 31
0.0
  0
ENDBLK
  5
1C6
330
1C4
100
AcDbEntity
  8
0
100
AcDbBlockEnd
  0
BLOCK
  5
1D1
330
1D0
100
AcDbEntity
  8
0
100
AcDbBlockBegin
  2
SW_CENTERMARKSYMBOL_4
 70
     0
 10
0.0
 20
0.0
 30
0.0
  3
SW_CENTERMARKSYMBOL_4
  1

  0
LINE
  5
1D3
330
1D0
100
AcDbEntity
  8
0
  6
Continuous
 62
     0
370
    18
100
AcDbLine
 10
0.0
 20
0.0
 30
0.0
 11
0.0
 21
5.0
 31
0.0
  0
LINE
  5
1D4
330
1D0
100
AcDbEntity
  8
0
  6
Continuous
 62
     0
370
    18
100
AcDbLine
 10
0.0
 20
0.0
 30
0.0
 11
-5.0
 21
0.0
 31
0.0
  0
LINE
  5
1D5
330
1D0
100
AcDbEntity
  8
0
  6
Continuous
 62
     0
370
    18
100
AcDbLine
 10
0.0
 20
0.0
 30
0.0
 11
0.0
 21
-5.0
 31
0.0
  0
LINE
  5
1D6
330
1D0
100
AcDbEntity
  8
0
  6
Continuous
 62
     0
370
    18
100
AcDbLine
 10
0.0
 20
0.0
 30
0.0
 11
5.0
 21
0.0
 31
0.0
  0
LINE
  5
1D7
330
1D0
100
AcDbEntity
  8
0
  6
Continuous
 62
     0
370
    18
100
AcDbLine
 10
0.0
 20
10.0
 30
0.0
 11
0.0
 21
20.0
 31
0.0
  0
LINE
  5
1D8
330
1D0
100
AcDbEntity
  8
0
  6
Continuous
 62
     0
370
    18
100
AcDbLine
 10
-10.0
 20
0.0
 30
0.0
 11
-20.0
 21
0.0
 31
0.0
  0
LINE
  5
1D9
330
1D0
100
AcDbEntity
  8
0
  6
Continuous
 62
     0
370
    18
100
AcDbLine
 10
0.0
 20
-10.0
 30
0.0
 11
0.0
 21
-20.0
 31
0.0
  0
LINE
  5
1DA
330
1D0
100
AcDbEntity
  8
0
  6
Continuous
 62
     0
370
    18
100
AcDbLine
 10
10.0
 20
0.0
 30
0.0
 11
20.0
 21
0.0
 31
0.0
  0
ENDBLK
  5
1D2
330
1D0
100
AcDbEntity
  8
0
100
AcDbBlockEnd
  0
BLOCK
  5
1EE
330
1ED
100
AcDbEntity
  8
0
100
AcDbBlockBegin
  2
_D_6
 70
     0
 10
0.0
 20
0.0
 30
0.0
  3
_D_6
  1

  0
SOLID
  5
1F0
330
1ED
100
AcDbEntity
  8
0
  6
Continuous
 62
     7
370
    18
100
AcDbTrace
 10
239.4335781465
 20
235.5018930338
 30
0.0
 11
238.9255781465
 21
232.1998930338
 31
0.0
 12
239.9415781465
 22
232.1998930338
 32
0.0
 13
239.9415781465
 23
232.1998930338
 33
0.0
  0
SOLID
  5
1F1
330
1ED
100
AcDbEntity
  8
0
  6
Continuous
 62
     7
370
    18
100
AcDbTrace
 10
239.4335781465
 20
159.9214930338
 30
0.0
 11
239.9415781465
 21
163.2234930338
 31
0.0
 12
238.9255781465
 22
163.2234930338
 32
0.0
 13
238.9255781465
 23
163.2234930338
 33
0.0
  0
LINE
  5
1F2
330
1ED
100
AcDbEntity
  8
0
  6
Continuous
 62
     7
370
     0
100
AcDbLine
 10
262.1561808246
 20
235.5018930338
 30
0.0
 11
238.4335781465
 21
235.5018930338
 31
0.0
  0
LINE
  5
1F3
330
1ED
100
AcDbEntity
  8
0
  6
Continuous
 62
     7
370
     0
100
AcDbLine
 10
262.1561808246
 20
159.9214930338
 30
0.0
 11
238.4335781465
 21
159.9214930338
 31
0.0
  0
LINE
  5
1F4
330
1ED
100
AcDbEntity
  8
0
  6
Continuous
 62
     7
370
     0
100
AcDbLine
 10
239.4335781465
 20
235.5018930338
 30
0.0
 11
239.4335781465
 21
159.9214930338
 31
0.0
  0
LINE
  5
1F5
330
1ED
100
AcDbEntity
  8
0
  6
Continuous
 62
     7
370
     0
100
AcDbLine
 10
239.4335781465
 20
159.9214930338
 30
0.0
 11
239.4335781465
 21
117.1563427902
 31
0.0
  0
MTEXT
  5
1F6
330
1ED
100
AcDbEntity
  8
0
  6
Continuous
 62
     7
370
    18
100
AcDbMText
 10
234.9218412319
 20
117.1563427902
 30
0.0
 40
3.5
 41
0.0
 71
     1
 72
     1
  1
37.79
  7
SLDTEXTSTYLE0
 11
-3.491481338843133E-15
 21
1.0
 31
0.0
 73
     1
 44
1.0
  0
ENDBLK
  5
1EF
330
1ED
100
AcDbEntity
  8
0
100
AcDbBlockEnd
  0
ENDSEC
  0
SECTION
  2
ENTITIES
  0
LINE
  5
64
330
1F
100
AcDbEntity
  8
0
  6
Continuous
 62
     7
370
    50
100
AcDbLine
 10
999.0
 20
14.25
 30
0.0
 11
1179.0
 21
14.25
 31
0.0
  0
LINE
  5
65
330
1F
100
AcDbEntity
  8
0
  6
Continuous
 62
     7
370
    50
100
AcDbLine
 10
1179.0
 20
48.25
 30
0.0
 11
999.0
 21
48.25
 31
0.0
  0
LINE
  5
66
330
1F
100
AcDbEntity
  8
0
  6
Continuous
 62
     7
370
    50
100
AcDbLine
 10
999.0
 20
65.25
 30
0.0
 11
1179.0
 21
65.25
 31
0.0
  0
LINE
  5
67
330
1F
100
AcDbEntity
  8
0
  6
Continuous
 62
     7
370
    50
100
AcDbLine
 10
1025.9909524338
 20
48.25
 30
0.0
 11
1025.9909524338
 21
10.0
 31
0.0
  0
LINE
  5
68
330
1F
100
AcDbEntity
  8
0
  6
Continuous
 62
     7
370
    50
100
AcDbLine
 10
1097.8
 20
31.25
 30
0.0
 11
999.0
 21
31.25
 31
0.0
  0
LINE
  5
69
330
1F
100
AcDbEntity
  8
0
  6
Continuous
 62
     7
370
    50
100
AcDbLine
 10
1097.8
 20
35.5
 30
0.0
 11
999.0
 21
35.5
 31
0.0
  0
LINE
  5
6A
330
1F
100
AcDbEntity
  8
0
  6
Continuous
 62
     7
370
    50
100
AcDbLine
 10
1097.8
 20
39.75
 30
0.0
 11
999.0
 21
39.75
 31
0.0
  0
LINE
  5
6B
330
1F
100
AcDbEntity
  8
0
  6
Continuous
 62
     7
370
    50
100
AcDbLine
 10
1097.8
 20
44.0
 30
0.0
 11
999.0
 21
44.0
 31
0.0
  0
LINE
  5
6C
330
1F
100
AcDbEntity
  8
0
  6
Continuous
 62
     7
370
    50
100
AcDbLine
 10
1053.6
 20
10.0
 30
0.0
 11
1053.6
 21
48.25
 31
0.0
  0
LINE
  5
6D
330
1F
100
AcDbEntity
  8
0
  6
Continuous
 62
     7
370
    50
100
AcDbLine
 10
1006.8
 20
48.25
 30
0.0
 11
1006.8
 21
10.0
 31
0.0
  0
LINE
  5
6E
330
1F
100
AcDbEntity
  8
0
  6
Continuous
 62
     7
370
    50
100
AcDbLine
 10
1032.8
 20
48.25
 30
0.0
 11
1032.8
 21
65.25
 31
0.0
  0
LINE
  5
6F
330
1F
100
AcDbEntity
  8
0
  6
Continuous
 62
     7
370
    50
100
AcDbLine
 10
1043.3989261635
 20
48.25
 30
0.0
 11
1043.3989261635
 21
10.0
 31
0.0
  0
LINE
  5
70
330
1F
100
AcDbEntity
  8
0
  6
Continuous
 62
     7
370
    50
100
AcDbLine
 10
1064.0
 20
31.25
 30
0.0
 11
1064.0
 21
48.25
 31
0.0
  0
LINE
  5
71
330
1F
100
AcDbEntity
  8
0
  6
Continuous
 62
     7
370
    50
100
AcDbLine
 10
1053.6
 20
18.5
 30
0.0
 11
999.0
 21
18.5
 31
0.0
  0
LINE
  5
72
330
1F
100
AcDbEntity
  8
0
  6
Continuous
 62
     7
370
    50
100
AcDbLine
 10
1079.6
 20
65.25
 30
0.0
 11
1079.6
 21
27.0
 31
0.0
  0
LINE
  5
73
330
1F
100
AcDbEntity
  8
0
  6
Continuous
 62
     7
370
    50
100
AcDbLine
 10
1053.6
 20
22.749928
 30
0.0
 11
999.0
 21
22.749928
 31
0.0
  0
LINE
  5
74
330
1F
100
AcDbEntity
  8
0
  6
Continuous
 62
     7
370
    50
100
AcDbLine
 10
1053.6
 20
27.0
 30
0.0
 11
999.0
 21
27.0
 31
0.0
  0
LINE
  5
75
330
1F
100
AcDbEntity
  8
0
  6
Continuous
 62
     7
370
    50
100
AcDbLine
 10
1053.6
 20
27.0
 30
0.0
 11
1179.0
 21
27.0
 31
0.0
  0
LINE
  5
76
330
1F
100
AcDbEntity
  8
0
  6
Continuous
 62
     7
370
    50
100
AcDbLine
 10
1097.8
 20
65.25
 30
0.0
 11
1097.8
 21
10.0
 31
0.0
  0
LINE
  5
77
330
1F
100
AcDbEntity
  8
0
  6
Continuous
 62
     7
370
    50
100
AcDbLine
 10
1142.0
 20
10.0
 30
0.0
 11
1142.0
 21
14.25
 31
0.0
  0
LINE
  5
78
330
1F
100
AcDbEntity
  8
0
  6
Continuous
 62
     7
370
    50
100
AcDbLine
 10
1149.8
 20
58.875
 30
0.0
 11
1149.8
 21
65.25
 31
0.0
  0
LINE
  5
79
330
1F
100
AcDbEntity
  8
0
  6
Continuous
 62
     7
370
    50
100
AcDbLine
 10
1166.0
 20
14.25
 30
0.0
 11
1166.0
 21
27.0
 31
0.0
  0
LINE
  5
7A
330
1F
100
AcDbEntity
  8
0
  6
Continuous
 62
     7
370
    50
100
AcDbLine
 10
1179.0
 20
58.875
 30
0.0
 11
1097.8
 21
58.875
 31
0.0
  0
LINE
  5
7B
330
1F
100
AcDbEntity
  8
0
  6
Continuous
 62
     7
370
    50
100
AcDbLine
 10
1179.0
 20
18.5
 30
0.0
 11
1166.0
 21
18.5
 31
0.0
  0
LINE
  5
7C
330
1F
100
AcDbEntity
  8
0
  6
Continuous
 62
     7
370
    50
100
AcDbLine
 10
999.0
 20
65.25
 30
0.0
 11
999.0
 21
10.0
 31
0.0
  0
LINE
  5
7D
330
1F
100
AcDbEntity
  8
0
  6
Continuous
 62
     7
370
    70
100
AcDbLine
 10
20.0
 20
10.0
 30
0.0
 11
20.0
 21
831.0
 31
0.0
  0
LINE
  5
7E
330
1F
100
AcDbEntity
  8
0
  6
Continuous
 62
     7
370
    70
100
AcDbLine
 10
20.0
 20
831.0
 30
0.0
 11
1179.0
 21
831.0
 31
0.0
  0
LINE
  5
7F
330
1F
100
AcDbEntity
  8
0
  6
Continuous
 62
     7
370
    70
100
AcDbLine
 10
1179.0
 20
831.0
 30
0.0
 11
1179.0
 21
10.0
 31
0.0
  0
LINE
  5
80
330
1F
100
AcDbEntity
  8
0
  6
Continuous
 62
     7
370
    70
100
AcDbLine
 10
1179.0
 20
10.0
 30
0.0
 11
20.0
 21
10.0
 31
0.0
  0
LINE
  5
81
330
1F
100
AcDbEntity
  8
0
  6
Continuous
 62
     7
370
    70
100
AcDbLine
 10
15.0
 20
5.0
 30
0.0
 11
15.0
 21
836.0
 31
0.0
  0
LINE
  5
82
330
1F
100
AcDbEntity
  8
0
  6
Continuous
 62
     7
370
    70
100
AcDbLine
 10
15.0
 20
836.0
 30
0.0
 11
1184.0
 21
836.0
 31
0.0
  0
LINE
  5
83
330
1F
100
AcDbEntity
  8
0
  6
Continuous
 62
     7
370
    70
100
AcDbLine
 10
1184.0
 20
836.0
 30
0.0
 11
1184.0
 21
5.0
 31
0.0
  0
LINE
  5
84
330
1F
100
AcDbEntity
  8
0
  6
Continuous
 62
     7
370
    70
100
AcDbLine
 10
1184.0
 20
5.0
 30
0.0
 11
15.0
 21
5.0
 31
0.0
  0
LINE
  5
85
330
1F
100
AcDbEntity
  8
0
  6
Continuous
 62
     7
370
    35
100
AcDbLine
 10
15.0
 20
420.5
 30
0.0
 11
25.0
 21
420.5
 31
0.0
  0
LINE
  5
86
330
1F
100
AcDbEntity
  8
0
  6
Continuous
 62
     7
370
    35
100
AcDbLine
 10
599.5
 20
836.0
 30
0.0
 11
599.5
 21
826.0
 31
0.0
  0
LINE
  5
87
330
1F
100
AcDbEntity
  8
0
  6
Continuous
 62
     7
370
    35
100
AcDbLine
 10
1184.0
 20
420.5
 30
0.0
 11
1174.0
 21
420.5
 31
0.0
  0
LINE
  5
88
330
1F
100
AcDbEntity
  8
0
  6
Continuous
 62
     7
370
    35
100
AcDbLine
 10
599.5
 20
5.0
 30
0.0
 11
599.5
 21
15.0
 31
0.0
  0
LINE
  5
89
330
1F
100
AcDbEntity
  8
0
  6
Continuous
 62
     7
370
    35
100
AcDbLine
 10
20.0
 20
70.5
 30
0.0
 11
15.0
 21
70.5
 31
0.0
  0
LINE
  5
8A
330
1F
100
AcDbEntity
  8
0
  6
Continuous
 62
     7
370
    35
100
AcDbLine
 10
1179.0
 20
70.5
 30
0.0
 11
1184.0
 21
70.5
 31
0.0
  0
LINE
  5
8B
330
1F
100
AcDbEntity
  8
0
  6
Continuous
 62
     7
370
    35
100
AcDbLine
 10
20.0
 20
120.5
 30
0.0
 11
15.0
 21
120.5
 31
0.0
  0
LINE
  5
8C
330
1F
100
AcDbEntity
  8
0
  6
Continuous
 62
     7
370
    35
100
AcDbLine
 10
1179.0
 20
120.5
 30
0.0
 11
1184.0
 21
120.5
 31
0.0
  0
LINE
  5
8D
330
1F
100
AcDbEntity
  8
0
  6
Continuous
 62
     7
370
    35
100
AcDbLine
 10
20.0
 20
170.5
 30
0.0
 11
15.0
 21
170.5
 31
0.0
  0
LINE
  5
8E
330
1F
100
AcDbEntity
  8
0
  6
Continuous
 62
     7
370
    35
100
AcDbLine
 10
1179.0
 20
170.5
 30
0.0
 11
1184.0
 21
170.5
 31
0.0
  0
LINE
  5
8F
330
1F
100
AcDbEntity
  8
0
  6
Continuous
 62
     7
370
    35
100
AcDbLine
 10
20.0
 20
220.5
 30
0.0
 11
15.0
 21
220.5
 31
0.0
  0
LINE
  5
90
330
1F
100
AcDbEntity
  8
0
  6
Continuous
 62
     7
370
    35
100
AcDbLine
 10
1179.0
 20
220.5
 30
0.0
 11
1184.0
 21
220.5
 31
0.0
  0
LINE
  5
91
330
1F
100
AcDbEntity
  8
0
  6
Continuous
 62
     7
370
    35
100
AcDbLine
 10
20.0
 20
270.5
 30
0.0
 11
15.0
 21
270.5
 31
0.0
  0
LINE
  5
92
330
1F
100
AcDbEntity
  8
0
  6
Continuous
 62
     7
370
    35
100
AcDbLine
 10
1179.0
 20
270.5
 30
0.0
 11
1184.0
 21
270.5
 31
0.0
  0
LINE
  5
93
330
1F
100
AcDbEntity
  8
0
  6
Continuous
 62
     7
370
    35
100
AcDbLine
 10
20.0
 20
320.5
 30
0.0
 11
15.0
 21
320.5
 31
0.0
  0
LINE
  5
94
330
1F
100
AcDbEntity
  8
0
  6
Continuous
 62
     7
370
    35
100
AcDbLine
 10
1179.0
 20
320.5
 30
0.0
 11
1184.0
 21
320.5
 31
0.0
  0
LINE
  5
95
330
1F
100
AcDbEntity
  8
0
  6
Continuous
 62
     7
370
    35
100
AcDbLine
 10
20.0
 20
370.5
 30
0.0
 11
15.0
 21
370.5
 31
0.0
  0
LINE
  5
96
330
1F
100
AcDbEntity
  8
0
  6
Continuous
 62
     7
370
    35
100
AcDbLine
 10
1179.0
 20
370.5
 30
0.0
 11
1184.0
 21
370.5
 31
0.0
  0
LINE
  5
97
330
1F
100
AcDbEntity
  8
0
  6
Continuous
 62
     7
370
    35
100
AcDbLine
 10
20.0
 20
420.5
 30
0.0
 11
15.0
 21
420.5
 31
0.0
  0
LINE
  5
98
330
1F
100
AcDbEntity
  8
0
  6
Continuous
 62
     7
370
    35
100
AcDbLine
 10
1179.0
 20
420.5
 30
0.0
 11
1184.0
 21
420.5
 31
0.0
  0
LINE
  5
99
330
1F
100
AcDbEntity
  8
0
  6
Continuous
 62
     7
370
    35
100
AcDbLine
 10
20.0
 20
470.5
 30
0.0
 11
15.0
 21
470.5
 31
0.0
  0
LINE
  5
9A
330
1F
100
AcDbEntity
  8
0
  6
Continuous
 62
     7
370
    35
100
AcDbLine
 10
1179.0
 20
470.5
 30
0.0
 11
1184.0
 21
470.5
 31
0.0
  0
LINE
  5
9B
330
1F
100
AcDbEntity
  8
0
  6
Continuous
 62
     7
370
    35
100
AcDbLine
 10
20.0
 20
520.5
 30
0.0
 11
15.0
 21
520.5
 31
0.0
  0
LINE
  5
9C
330
1F
100
AcDbEntity
  8
0
  6
Continuous
 62
     7
370
    35
100
AcDbLine
 10
1179.0
 20
520.5
 30
0.0
 11
1184.0
 21
520.5
 31
0.0
  0
LINE
  5
9D
330
1F
100
AcDbEntity
  8
0
  6
Continuous
 62
     7
370
    35
100
AcDbLine
 10
20.0
 20
570.5
 30
0.0
 11
15.0
 21
570.5
 31
0.0
  0
LINE
  5
9E
330
1F
100
AcDbEntity
  8
0
  6
Continuous
 62
     7
370
    35
100
AcDbLine
 10
1179.0
 20
570.5
 30
0.0
 11
1184.0
 21
570.5
 31
0.0
  0
LINE
  5
9F
330
1F
100
AcDbEntity
  8
0
  6
Continuous
 62
     7
370
    35
100
AcDbLine
 10
20.0
 20
620.5
 30
0.0
 11
15.0
 21
620.5
 31
0.0
  0
LINE
  5
A0
330
1F
100
AcDbEntity
  8
0
  6
Continuous
 62
     7
370
    35
100
AcDbLine
 10
1179.0
 20
620.5
 30
0.0
 11
1184.0
 21
620.5
 31
0.0
  0
LINE
  5
A1
330
1F
100
AcDbEntity
  8
0
  6
Continuous
 62
     7
370
    35
100
AcDbLine
 10
20.0
 20
670.5
 30
0.0
 11
15.0
 21
670.5
 31
0.0
  0
LINE
  5
A2
330
1F
100
AcDbEntity
  8
0
  6
Continuous
 62
     7
370
    35
100
AcDbLine
 10
1179.0
 20
670.5
 30
0.0
 11
1184.0
 21
670.5
 31
0.0
  0
LINE
  5
A3
330
1F
100
AcDbEntity
  8
0
  6
Continuous
 62
     7
370
    35
100
AcDbLine
 10
20.0
 20
720.5
 30
0.0
 11
15.0
 21
720.5
 31
0.0
  0
LINE
  5
A4
330
1F
100
AcDbEntity
  8
0
  6
Continuous
 62
     7
370
    35
100
AcDbLine
 10
1179.0
 20
720.5
 30
0.0
 11
1184.0
 21
720.5
 31
0.0
  0
LINE
  5
A5
330
1F
100
AcDbEntity
  8
0
  6
Continuous
 62
     7
370
    35
100
AcDbLine
 10
20.0
 20
770.5
 30
0.0
 11
15.0
 21
770.5
 31
0.0
  0
LINE
  5
A6
330
1F
100
AcDbEntity
  8
0
  6
Continuous
 62
     7
370
    35
100
AcDbLine
 10
1179.0
 20
770.5
 30
0.0
 11
1184.0
 21
770.5
 31
0.0
  0
LINE
  5
A7
330
1F
100
AcDbEntity
  8
0
  6
Continuous
 62
     7
370
    35
100
AcDbLine
 10
49.5
 20
831.0
 30
0.0
 11
49.5
 21
836.0
 31
0.0
  0
LINE
  5
A8
330
1F
100
AcDbEntity
  8
0
  6
Continuous
 62
     7
370
    35
100
AcDbLine
 10
49.5
 20
10.0
 30
0.0
 11
49.5
 21
5.0
 31
0.0
  0
LINE
  5
A9
330
1F
100
AcDbEntity
  8
0
  6
Continuous
 62
     7
370
    35
100
AcDbLine
 10
99.5
 20
831.0
 30
0.0
 11
99.5
 21
836.0
 31
0.0
  0
LINE
  5
AA
330
1F
100
AcDbEntity
  8
0
  6
Continuous
 62
     7
370
    35
100
AcDbLine
 10
99.5
 20
10.0
 30
0.0
 11
99.5
 21
5.0
 31
0.0
  0
LINE
  5
AB
330
1F
100
AcDbEntity
  8
0
  6
Continuous
 62
     7
370
    35
100
AcDbLine
 10
149.5
 20
831.0
 30
0.0
 11
149.5
 21
836.0
 31
0.0
  0
LINE
  5
AC
330
1F
100
AcDbEntity
  8
0
  6
Continuous
 62
     7
370
    35
100
AcDbLine
 10
149.5
 20
10.0
 30
0.0
 11
149.5
 21
5.0
 31
0.0
  0
LINE
  5
AD
330
1F
100
AcDbEntity
  8
0
  6
Continuous
 62
     7
370
    35
100
AcDbLine
 10
199.5
 20
831.0
 30
0.0
 11
199.5
 21
836.0
 31
0.0
  0
LINE
  5
AE
330
1F
100
AcDbEntity
  8
0
  6
Continuous
 62
     7
370
    35
100
AcDbLine
 10
199.5
 20
10.0
 30
0.0
 11
199.5
 21
5.0
 31
0.0
  0
LINE
  5
AF
330
1F
100
AcDbEntity
  8
0
  6
Continuous
 62
     7
370
    35
100
AcDbLine
 10
249.5
 20
831.0
 30
0.0
 11
249.5
 21
836.0
 31
0.0
  0
LINE
  5
B0
330
1F
100
AcDbEntity
  8
0
  6
Continuous
 62
     7
370
    35
100
AcDbLine
 10
249.5
 20
10.0
 30
0.0
 11
249.5
 21
5.0
 31
0.0
  0
LINE
  5
B1
330
1F
100
AcDbEntity
  8
0
  6
Continuous
 62
     7
370
    35
100
AcDbLine
 10
299.5
 20
831.0
 30
0.0
 11
299.5
 21
836.0
 31
0.0
  0
LINE
  5
B2
330
1F
100
AcDbEntity
  8
0
  6
Continuous
 62
     7
370
    35
100
AcDbLine
 10
299.5
 20
10.0
 30
0.0
 11
299.5
 21
5.0
 31
0.0
  0
LINE
  5
B3
330
1F
100
AcDbEntity
  8
0
  6
Continuous
 62
     7
370
    35
100
AcDbLine
 10
349.5
 20
831.0
 30
0.0
 11
349.5
 21
836.0
 31
0.0
  0
LINE
  5
B4
330
1F
100
AcDbEntity
  8
0
  6
Continuous
 62
     7
370
    35
100
AcDbLine
 10
349.5
 20
10.0
 30
0.0
 11
349.5
 21
5.0
 31
0.0
  0
LINE
  5
B5
330
1F
100
AcDbEntity
  8
0
  6
Continuous
 62
     7
370
    35
100
AcDbLine
 10
399.5
 20
831.0
 30
0.0
 11
399.5
 21
836.0
 31
0.0
  0
LINE
  5
B6
330
1F
100
AcDbEntity
  8
0
  6
Continuous
 62
     7
370
    35
100
AcDbLine
 10
399.5
 20
10.0
 30
0.0
 11
399.5
 21
5.0
 31
0.0
  0
LINE
  5
B7
330
1F
100
AcDbEntity
  8
0
  6
Continuous
 62
     7
370
    35
100
AcDbLine
 10
449.5
 20
831.0
 30
0.0
 11
449.5
 21
836.0
 31
0.0
  0
LINE
  5
B8
330
1F
100
AcDbEntity
  8
0
  6
Continuous
 62
     7
370
    35
100
AcDbLine
 10
449.5
 20
10.0
 30
0.0
 11
449.5
 21
5.0
 31
0.0
  0
LINE
  5
B9
330
1F
100
AcDbEntity
  8
0
  6
Continuous
 62
     7
370
    35
100
AcDbLine
 10
499.5
 20
831.0
 30
0.0
 11
499.5
 21
836.0
 31
0.0
  0
LINE
  5
BA
330
1F
100
AcDbEntity
  8
0
  6
Continuous
 62
     7
370
    35
100
AcDbLine
 10
499.5
 20
10.0
 30
0.0
 11
499.5
 21
5.0
 31
0.0
  0
LINE
  5
BB
330
1F
100
AcDbEntity
  8
0
  6
Continuous
 62
     7
370
    35
100
AcDbLine
 10
549.5
 20
831.0
 30
0.0
 11
549.5
 21
836.0
 31
0.0
  0
LINE
  5
BC
330
1F
100
AcDbEntity
  8
0
  6
Continuous
 62
     7
370
    35
100
AcDbLine
 10
549.5
 20
10.0
 30
0.0
 11
549.5
 21
5.0
 31
0.0
  0
LINE
  5
BD
330
1F
100
AcDbEntity
  8
0
  6
Continuous
 62
     7
370
    35
100
AcDbLine
 10
599.5
 20
831.0
 30
0.0
 11
599.5
 21
836.0
 31
0.0
  0
LINE
  5
BE
330
1F
100
AcDbEntity
  8
0
  6
Continuous
 62
     7
370
    35
100
AcDbLine
 10
599.5
 20
10.0
 30
0.0
 11
599.5
 21
5.0
 31
0.0
  0
LINE
  5
BF
330
1F
100
AcDbEntity
  8
0
  6
Continuous
 62
     7
370
    35
100
AcDbLine
 10
649.5
 20
831.0
 30
0.0
 11
649.5
 21
836.0
 31
0.0
  0
LINE
  5
C0
330
1F
100
AcDbEntity
  8
0
  6
Continuous
 62
     7
370
    35
100
AcDbLine
 10
649.5
 20
10.0
 30
0.0
 11
649.5
 21
5.0
 31
0.0
  0
LINE
  5
C1
330
1F
100
AcDbEntity
  8
0
  6
Continuous
 62
     7
370
    35
100
AcDbLine
 10
699.5
 20
831.0
 30
0.0
 11
699.5
 21
836.0
 31
0.0
  0
LINE
  5
C2
330
1F
100
AcDbEntity
  8
0
  6
Continuous
 62
     7
370
    35
100
AcDbLine
 10
699.5
 20
10.0
 30
0.0
 11
699.5
 21
5.0
 31
0.0
  0
LINE
  5
C3
330
1F
100
AcDbEntity
  8
0
  6
Continuous
 62
     7
370
    35
100
AcDbLine
 10
749.5
 20
831.0
 30
0.0
 11
749.5
 21
836.0
 31
0.0
  0
LINE
  5
C4
330
1F
100
AcDbEntity
  8
0
  6
Continuous
 62
     7
370
    35
100
AcDbLine
 10
749.5
 20
10.0
 30
0.0
 11
749.5
 21
5.0
 31
0.0
  0
LINE
  5
C5
330
1F
100
AcDbEntity
  8
0
  6
Continuous
 62
     7
370
    35
100
AcDbLine
 10
799.5
 20
831.0
 30
0.0
 11
799.5
 21
836.0
 31
0.0
  0
LINE
  5
C6
330
1F
100
AcDbEntity
  8
0
  6
Continuous
 62
     7
370
    35
100
AcDbLine
 10
799.5
 20
10.0
 30
0.0
 11
799.5
 21
5.0
 31
0.0
  0
LINE
  5
C7
330
1F
100
AcDbEntity
  8
0
  6
Continuous
 62
     7
370
    35
100
AcDbLine
 10
849.5
 20
831.0
 30
0.0
 11
849.5
 21
836.0
 31
0.0
  0
LINE
  5
C8
330
1F
100
AcDbEntity
  8
0
  6
Continuous
 62
     7
370
    35
100
AcDbLine
 10
849.5
 20
10.0
 30
0.0
 11
849.5
 21
5.0
 31
0.0
  0
LINE
  5
C9
330
1F
100
AcDbEntity
  8
0
  6
Continuous
 62
     7
370
    35
100
AcDbLine
 10
899.5
 20
831.0
 30
0.0
 11
899.5
 21
836.0
 31
0.0
  0
LINE
  5
CA
330
1F
100
AcDbEntity
  8
0
  6
Continuous
 62
     7
370
    35
100
AcDbLine
 10
899.5
 20
10.0
 30
0.0
 11
899.5
 21
5.0
 31
0.0
  0
LINE
  5
CB
330
1F
100
AcDbEntity
  8
0
  6
Continuous
 62
     7
370
    35
100
AcDbLine
 10
949.5
 20
831.0
 30
0.0
 11
949.5
 21
836.0
 31
0.0
  0
LINE
  5
CC
330
1F
100
AcDbEntity
  8
0
  6
Continuous
 62
     7
370
    35
100
AcDbLine
 10
949.5
 20
10.0
 30
0.0
 11
949.5
 21
5.0
 31
0.0
  0
LINE
  5
CD
330
1F
100
AcDbEntity
  8
0
  6
Continuous
 62
     7
370
    35
100
AcDbLine
 10
999.5
 20
831.0
 30
0.0
 11
999.5
 21
836.0
 31
0.0
  0
LINE
  5
CE
330
1F
100
AcDbEntity
  8
0
  6
Continuous
 62
     7
370
    35
100
AcDbLine
 10
999.5
 20
10.0
 30
0.0
 11
999.5
 21
5.0
 31
0.0
  0
LINE
  5
CF
330
1F
100
AcDbEntity
  8
0
  6
Continuous
 62
     7
370
    35
100
AcDbLine
 10
1049.5
 20
831.0
 30
0.0
 11
1049.5
 21
836.0
 31
0.0
  0
LINE
  5
D0
330
1F
100
AcDbEntity
  8
0
  6
Continuous
 62
     7
370
    35
100
AcDbLine
 10
1049.5
 20
10.0
 30
0.0
 11
1049.5
 21
5.0
 31
0.0
  0
LINE
  5
D1
330
1F
100
AcDbEntity
  8
0
  6
Continuous
 62
     7
370
    35
100
AcDbLine
 10
1099.5
 20
831.0
 30
0.0
 11
1099.5
 21
836.0
 31
0.0
  0
LINE
  5
D2
330
1F
100
AcDbEntity
  8
0
  6
Continuous
 62
     7
370
    35
100
AcDbLine
 10
1099.5
 20
10.0
 30
0.0
 11
1099.5
 21
5.0
 31
0.0
  0
LINE
  5
D3
330
1F
100
AcDbEntity
  8
0
  6
Continuous
 62
     7
370
    35
100
AcDbLine
 10
1149.5
 20
831.0
 30
0.0
 11
1149.5
 21
836.0
 31
0.0
  0
LINE
  5
D4
330
1F
100
AcDbEntity
  8
0
  6
Continuous
 62
     7
370
    35
100
AcDbLine
 10
1149.5
 20
10.0
 30
0.0
 11
1149.5
 21
5.0
 31
0.0
  0
MTEXT
  5
D6
330
1F
100
AcDbEntity
  8
0
  6
Continuous
 62
     7
370
     0
100
AcDbMText
 10
17.3396881428
 20
42.2430453383
 30
0.0
 40
3.96875
 41
0.0
 71
     2
 72
     1
  1
A
  7
SLDTEXTSTYLE0
 73
     1
 44
1.0
  0
MTEXT
  5
D7
330
1F
100
AcDbEntity
  8
0
  6
Continuous
 62
     7
370
     0
100
AcDbMText
 10
1181.3396881428
 20
42.2430453383
 30
0.0
 40
3.96875
 41
0.0
 71
     2
 72
     1
  1
A
  7
SLDTEXTSTYLE0
 73
     1
 44
1.0
  0
MTEXT
  5
D8
330
1F
100
AcDbEntity
  8
0
  6
Continuous
 62
     7
370
     0
100
AcDbMText
 10
17.4706018241
 20
97.4518930749
 30
0.0
 40
3.96875
 41
0.0
 71
     2
 72
     1
  1
B
  7
SLDTEXTSTYLE0
 73
     1
 44
1.0
  0
MTEXT
  5
D9
330
1F
100
AcDbEntity
  8
0
  6
Continuous
 62
     7
370
     0
100
AcDbMText
 10
1181.4706018241
 20
97.4518930749
 30
0.0
 40
3.96875
 41
0.0
 71
     2
 72
     1
  1
B
  7
SLDTEXTSTYLE0
 73
     1
 44
1.0
  0
MTEXT
  5
DA
330
1F
100
AcDbEntity
  8
0
  6
Continuous
 62
     7
370
     0
100
AcDbMText
 10
17.458658902
 20
147.4930453383
 30
0.0
 40
3.96875
 41
0.0
 71
     2
 72
     1
  1
C
  7
SLDTEXTSTYLE0
 73
     1
 44
1.0
  0
MTEXT
  5
DB
330
1F
100
AcDbEntity
  8
0
  6
Continuous
 62
     7
370
     0
100
AcDbMText
 10
1181.458658902
 20
147.4930453383
 30
0.0
 40
3.96875
 41
0.0
 71
     2
 72
     1
  1
C
  7
SLDTEXTSTYLE0
 73
     1
 44
1.0
  0
MTEXT
  5
DC
330
1F
100
AcDbEntity
  8
0
  6
Continuous
 62
     7
370
     0
100
AcDbMText
 10
17.4526872821
 20
197.4518930749
 30
0.0
 40
3.96875
 41
0.0
 71
     2
 72
     1
  1
D
  7
SLDTEXTSTYLE0
 73
     1
 44
1.0
  0
MTEXT
  5
DD
330
1F
100
AcDbEntity
  8
0
  6
Continuous
 62
     7
370
     0
100
AcDbMText
 10
1181.4526872821
 20
197.4518930749
 30
0.0
 40
3.96875
 41
0.0
 71
     2
 72
     1
  1
D
  7
SLDTEXTSTYLE0
 73
     1
 44
1.0
  0
MTEXT
  5
DE
330
1F
100
AcDbEntity
  8
0
  6
Continuous
 62
     7
370
     0
100
AcDbMText
 10
17.5078089051
 20
247.4930453383
 30
0.0
 40
3.96875
 41
0.0
 71
     2
 72
     1
  1
E
  7
SLDTEXTSTYLE0
 73
     1
 44
1.0
  0
MTEXT
  5
DF
330
1F
100
AcDbEntity
  8
0
  6
Continuous
 62
     7
370
     0
100
AcDbMText
 10
1181.5078089051
 20
247.4930453383
 30
0.0
 40
3.96875
 41
0.0
 71
     2
 72
     1
  1
E
  7
SLDTEXTSTYLE0
 73
     1
 44
1.0
  0
MTEXT
  5
E0
330
1F
100
AcDbEntity
  8
0
  6
Continuous
 62
     7
370
     0
100
AcDbMText
 10
17.4577402091
 20
297.4518930749
 30
0.0
 40
3.96875
 41
0.0
 71
     2
 72
     1
  1
F
  7
SLDTEXTSTYLE0
 73
     1
 44
1.0
  0
MTEXT
  5
E1
330
1F
100
AcDbEntity
  8
0
  6
Continuous
 62
     7
370
     0
100
AcDbMText
 10
1181.4577402091
 20
297.4518930749
 30
0.0
 40
3.96875
 41
0.0
 71
     2
 72
     1
  1
F
  7
SLDTEXTSTYLE0
 73
     1
 44
1.0
  0
MTEXT
  5
E2
330
1F
100
AcDbEntity
  8
0
  6
Continuous
 62
     7
370
     0
100
AcDbMText
 10
17.4866788853
 20
347.4930453383
 30
0.0
 40
3.96875
 41
0.0
 71
     2
 72
     1
  1
G
  7
SLDTEXTSTYLE0
 73
     1
 44
1.0
  0
MTEXT
  5
E3
330
1F
100
AcDbEntity
  8
0
  6
Continuous
 62
     7
370
     0
100
AcDbMText
 10
1181.4866788853
 20
347.4930453383
 30
0.0
 40
3.96875
 41
0.0
 71
     2
 72
     1
  1
G
  7
SLDTEXTSTYLE0
 73
     1
 44
1.0
  0
MTEXT
  5
E4
330
1F
100
AcDbEntity
  8
0
  6
Continuous
 62
     7
370
     0
100
AcDbMText
 10
17.4903537836
 20
397.4518930749
 30
0.0
 40
3.96875
 41
0.0
 71
     2
 72
     1
  1
H
  7
SLDTEXTSTYLE0
 73
     1
 44
1.0
  0
MTEXT
  5
E5
330
1F
100
AcDbEntity
  8
0
  6
Continuous
 62
     7
370
     0
100
AcDbMText
 10
1181.4903537836
 20
397.4518930749
 30
0.0
 40
3.96875
 41
0.0
 71
     2
 72
     1
  1
H
  7
SLDTEXTSTYLE0
 73
     1
 44
1.0
  0
MTEXT
  5
E6
330
1F
100
AcDbEntity
  8
0
  6
Continuous
 62
     7
370
     0
100
AcDbMText
 10
17.4650897412
 20
447.4930453383
 30
0.0
 40
3.96875
 41
0.0
 71
     2
 72
     1
  1
J
  7
SLDTEXTSTYLE0
 73
     1
 44
1.0
  0
MTEXT
  5
E7
330
1F
100
AcDbEntity
  8
0
  6
Continuous
 62
     7
370
     0
100
AcDbMText
 10
1181.4650897412
 20
447.4930453383
 30
0.0
 40
3.96875
 41
0.0
 71
     2
 72
     1
  1
J
  7
SLDTEXTSTYLE0
 73
     1
 44
1.0
  0
MTEXT
  5
E8
330
1F
100
AcDbEntity
  8
0
  6
Continuous
 62
     7
370
     0
100
AcDbMText
 10
17.4885163503
 20
497.4518930749
 30
0.0
 40
3.96875
 41
0.0
 71
     2
 72
     1
  1
K
  7
SLDTEXTSTYLE0
 73
     1
 44
1.0
  0
MTEXT
  5
E9
330
1F
100
AcDbEntity
  8
0
  6
Continuous
 62
     7
370
     0
100
AcDbMText
 10
1181.4885163503
 20
497.4518930749
 30
0.0
 40
3.96875
 41
0.0
 71
     2
 72
     1
  1
K
  7
SLDTEXTSTYLE0
 73
     1
 44
1.0
  0
MTEXT
  5
EA
330
1F
100
AcDbEntity
  8
0
  6
Continuous
 62
     7
370
     0
100
AcDbMText
 10
17.4545247471
 20
547.4930453383
 30
0.0
 40
3.96875
 41
0.0
 71
     2
 72
     1
  1
L
  7
SLDTEXTSTYLE0
 73
     1
 44
1.0
  0
MTEXT
  5
EB
330
1F
100
AcDbEntity
  8
0
  6
Continuous
 62
     7
370
     0
100
AcDbMText
 10
1181.4545247471
 20
547.4930453383
 30
0.0
 40
3.96875
 41
0.0
 71
     2
 72
     1
  1
L
  7
SLDTEXTSTYLE0
 73
     1
 44
1.0
  0
MTEXT
  5
EC
330
1F
100
AcDbEntity
  8
0
  6
Continuous
 62
     7
370
     0
100
AcDbMText
 10
17.3617368396
 20
597.4518930749
 30
0.0
 40
3.96875
 41
0.0
 71
     2
 72
     1
  1
M
  7
SLDTEXTSTYLE0
 73
     1
 44
1.0
  0
MTEXT
  5
ED
330
1F
100
AcDbEntity
  8
0
  6
Continuous
 62
     7
370
     0
100
AcDbMText
 10
1181.3617368396
 20
597.4518930749
 30
0.0
 40
3.96875
 41
0.0
 71
     2
 72
     1
  1
M
  7
SLDTEXTSTYLE0
 73
     1
 44
1.0
  0
MTEXT
  5
EE
330
1F
100
AcDbEntity
  8
0
  6
Continuous
 62
     7
370
     0
100
AcDbMText
 10
17.4637115803
 20
647.4930453383
 30
0.0
 40
3.96875
 41
0.0
 71
     2
 72
     1
  1
N
  7
SLDTEXTSTYLE0
 73
     1
 44
1.0
  0
MTEXT
  5
EF
330
1F
100
AcDbEntity
  8
0
  6
Continuous
 62
     7
370
     0
100
AcDbMText
 10
1181.4637115803
 20
647.4930453383
 30
0.0
 40
3.96875
 41
0.0
 71
     2
 72
     1
  1
N
  7
SLDTEXTSTYLE0
 73
     1
 44
1.0
  0
MTEXT
  5
F0
330
1F
100
AcDbEntity
  8
0
  6
Continuous
 62
     7
370
     0
100
AcDbMText
 10
17.4848415842
 20
697.4518930749
 30
0.0
 40
3.96875
 41
0.0
 71
     2
 72
     1
  1
P
  7
SLDTEXTSTYLE0
 73
     1
 44
1.0
  0
MTEXT
  5
F1
330
1F
100
AcDbEntity
  8
0
  6
Continuous
 62
     7
370
     0
100
AcDbMText
 10
1181.4848415842
 20
697.4518930749
 30
0.0
 40
3.96875
 41
0.0
 71
     2
 72
     1
  1
P
  7
SLDTEXTSTYLE0
 73
     1
 44
1.0
  0
MTEXT
  5
F2
330
1F
100
AcDbEntity
  8
0
  6
Continuous
 62
     7
370
     0
100
AcDbMText
 10
17.4444191577
 20
747.4930453383
 30
0.0
 40
3.96875
 41
0.0
 71
     2
 72
     1
  1
R
  7
SLDTEXTSTYLE0
 73
     1
 44
1.0
  0
MTEXT
  5
F3
330
1F
100
AcDbEntity
  8
0
  6
Continuous
 62
     7
370
     0
100
AcDbMText
 10
1181.4444191577
 20
747.4930453383
 30
0.0
 40
3.96875
 41
0.0
 71
     2
 72
     1
  1
R
  7
SLDTEXTSTYLE0
 73
     1
 44
1.0
  0
MTEXT
  5
F4
330
1F
100
AcDbEntity
  8
0
  6
Continuous
 62
     7
370
     0
100
AcDbMText
 10
17.4880569456
 20
802.7430453383
 30
0.0
 40
3.96875
 41
0.0
 71
     2
 72
     1
  1
T
  7
SLDTEXTSTYLE0
 73
     1
 44
1.0
  0
MTEXT
  5
F5
330
1F
100
AcDbEntity
  8
0
  6
Continuous
 62
     7
370
     0
100
AcDbMText
 10
1181.4880569456
 20
802.7430453383
 30
0.0
 40
3.96875
 41
0.0
 71
     2
 72
     1
  1
T
  7
SLDTEXTSTYLE0
 73
     1
 44
1.0
  0
MTEXT
  5
F6
330
1F
100
AcDbEntity
  8
0
  6
Continuous
 62
     7
370
     0
100
AcDbMText
 10
34.6700738929
 20
9.4930453383
 30
0.0
 40
3.96875
 41
0.0
 71
     2
 72
     1
  1
24
  7
SLDTEXTSTYLE0
 73
     1
 44
1.0
  0
MTEXT
  5
F7
330
1F
100
AcDbEntity
  8
0
  6
Continuous
 62
     7
370
     0
100
AcDbMText
 10
34.6700738929
 20
835.4930453383
 30
0.0
 40
3.96875
 41
0.0
 71
     2
 72
     1
  1
24
  7
SLDTEXTSTYLE0
 73
     1
 44
1.0
  0
MTEXT
  5
F8
330
1F
100
AcDbEntity
  8
0
  6
Continuous
 62
     7
370
     0
100
AcDbMText
 10
74.4200738929
 20
9.4930453383
 30
0.0
 40
3.96875
 41
0.0
 71
     2
 72
     1
  1
23
  7
SLDTEXTSTYLE0
 73
     1
 44
1.0
  0
MTEXT
  5
F9
330
1F
100
AcDbEntity
  8
0
  6
Continuous
 62
     7
370
     0
100
AcDbMText
 10
74.4200738929
 20
835.4930453383
 30
0.0
 40
3.96875
 41
0.0
 71
     2
 72
     1
  1
23
  7
SLDTEXTSTYLE0
 73
     1
 44
1.0
  0
MTEXT
  5
FA
330
1F
100
AcDbEntity
  8
0
  6
Continuous
 62
     7
370
     0
100
AcDbMText
 10
124.4200738929
 20
9.4930453383
 30
0.0
 40
3.96875
 41
0.0
 71
     2
 72
     1
  1
22
  7
SLDTEXTSTYLE0
 73
     1
 44
1.0
  0
MTEXT
  5
FB
330
1F
100
AcDbEntity
  8
0
  6
Continuous
 62
     7
370
     0
100
AcDbMText
 10
124.4200738929
 20
835.4930453383
 30
0.0
 40
3.96875
 41
0.0
 71
     2
 72
     1
  1
22
  7
SLDTEXTSTYLE0
 73
     1
 44
1.0
  0
MTEXT
  5
FC
330
1F
100
AcDbEntity
  8
0
  6
Continuous
 62
     7
370
     0
100
AcDbMText
 10
174.4200738929
 20
9.4930453383
 30
0.0
 40
3.96875
 41
0.0
 71
     2
 72
     1
  1
21
  7
SLDTEXTSTYLE0
 73
     1
 44
1.0
  0
MTEXT
  5
FD
330
1F
100
AcDbEntity
  8
0
  6
Continuous
 62
     7
370
     0
100
AcDbMText
 10
174.4200738929
 20
835.4930453383
 30
0.0
 40
3.96875
 41
0.0
 71
     2
 72
     1
  1
21
  7
SLDTEXTSTYLE0
 73
     1
 44
1.0
  0
MTEXT
  5
FE
330
1F
100
AcDbEntity
  8
0
  6
Continuous
 62
     7
370
     0
100
AcDbMText
 10
224.4200738929
 20
9.4930453383
 30
0.0
 40
3.96875
 41
0.0
 71
     2
 72
     1
  1
20
  7
SLDTEXTSTYLE0
 73
     1
 44
1.0
  0
MTEXT
  5
FF
330
1F
100
AcDbEntity
  8
0
  6
Continuous
 62
     7
370
     0
100
AcDbMText
 10
224.4200738929
 20
835.4930453383
 30
0.0
 40
3.96875
 41
0.0
 71
     2
 72
     1
  1
20
  7
SLDTEXTSTYLE0
 73
     1
 44
1.0
  0
MTEXT
  5
100
330
1F
100
AcDbEntity
  8
0
  6
Continuous
 62
     7
370
     0
100
AcDbMText
 10
274.4200738929
 20
9.4930453383
 30
0.0
 40
3.96875
 41
0.0
 71
     2
 72
     1
  1
19
  7
SLDTEXTSTYLE0
 73
     1
 44
1.0
  0
MTEXT
  5
101
330
1F
100
AcDbEntity
  8
0
  6
Continuous
 62
     7
370
     0
100
AcDbMText
 10
274.4200738929
 20
835.4930453383
 30
0.0
 40
3.96875
 41
0.0
 71
     2
 72
     1
  1
19
  7
SLDTEXTSTYLE0
 73
     1
 44
1.0
  0
MTEXT
  5
102
330
1F
100
AcDbEntity
  8
0
  6
Continuous
 62
     7
370
     0
100
AcDbMText
 10
324.4200738929
 20
9.4930453383
 30
0.0
 40
3.96875
 41
0.0
 71
     2
 72
     1
  1
18
  7
SLDTEXTSTYLE0
 73
     1
 44
1.0
  0
MTEXT
  5
103
330
1F
100
AcDbEntity
  8
0
  6
Continuous
 62
     7
370
     0
100
AcDbMText
 10
324.4200738929
 20
835.4930453383
 30
0.0
 40
3.96875
 41
0.0
 71
     2
 72
     1
  1
18
  7
SLDTEXTSTYLE0
 73
     1
 44
1.0
  0
MTEXT
  5
104
330
1F
100
AcDbEntity
  8
0
  6
Continuous
 62
     7
370
     0
100
AcDbMText
 10
374.4200738929
 20
9.4930453383
 30
0.0
 40
3.96875
 41
0.0
 71
     2
 72
     1
  1
17
  7
SLDTEXTSTYLE0
 73
     1
 44
1.0
  0
MTEXT
  5
105
330
1F
100
AcDbEntity
  8
0
  6
Continuous
 62
     7
370
     0
100
AcDbMText
 10
374.4200738929
 20
835.4930453383
 30
0.0
 40
3.96875
 41
0.0
 71
     2
 72
     1
  1
17
  7
SLDTEXTSTYLE0
 73
     1
 44
1.0
  0
MTEXT
  5
106
330
1F
100
AcDbEntity
  8
0
  6
Continuous
 62
     7
370
     0
100
AcDbMText
 10
424.4200738929
 20
9.4930453383
 30
0.0
 40
3.96875
 41
0.0
 71
     2
 72
     1
  1
16
  7
SLDTEXTSTYLE0
 73
     1
 44
1.0
  0
MTEXT
  5
107
330
1F
100
AcDbEntity
  8
0
  6
Continuous
 62
     7
370
     0
100
AcDbMText
 10
424.4200738929
 20
835.4930453383
 30
0.0
 40
3.96875
 41
0.0
 71
     2
 72
     1
  1
16
  7
SLDTEXTSTYLE0
 73
     1
 44
1.0
  0
MTEXT
  5
108
330
1F
100
AcDbEntity
  8
0
  6
Continuous
 62
     7
370
     0
100
AcDbMText
 10
474.4200738929
 20
9.4930453383
 30
0.0
 40
3.96875
 41
0.0
 71
     2
 72
     1
  1
15
  7
SLDTEXTSTYLE0
 73
     1
 44
1.0
  0
MTEXT
  5
109
330
1F
100
AcDbEntity
  8
0
  6
Continuous
 62
     7
370
     0
100
AcDbMText
 10
474.4200738929
 20
835.4930453383
 30
0.0
 40
3.96875
 41
0.0
 71
     2
 72
     1
  1
15
  7
SLDTEXTSTYLE0
 73
     1
 44
1.0
  0
MTEXT
  5
10A
330
1F
100
AcDbEntity
  8
0
  6
Continuous
 62
     7
370
     0
100
AcDbMText
 10
524.4200738929
 20
9.4930453383
 30
0.0
 40
3.96875
 41
0.0
 71
     2
 72
     1
  1
14
  7
SLDTEXTSTYLE0
 73
     1
 44
1.0
  0
MTEXT
  5
10B
330
1F
100
AcDbEntity
  8
0
  6
Continuous
 62
     7
370
     0
100
AcDbMText
 10
524.4200738929
 20
835.4930453383
 30
0.0
 40
3.96875
 41
0.0
 71
     2
 72
     1
  1
14
  7
SLDTEXTSTYLE0
 73
     1
 44
1.0
  0
MTEXT
  5
10C
330
1F
100
AcDbEntity
  8
0
  6
Continuous
 62
     7
370
     0
100
AcDbMText
 10
574.4200738929
 20
9.4930453383
 30
0.0
 40
3.96875
 41
0.0
 71
     2
 72
     1
  1
13
  7
SLDTEXTSTYLE0
 73
     1
 44
1.0
  0
MTEXT
  5
10D
330
1F
100
AcDbEntity
  8
0
  6
Continuous
 62
     7
370
     0
100
AcDbMText
 10
574.4200738929
 20
835.4930453383
 30
0.0
 40
3.96875
 41
0.0
 71
     2
 72
     1
  1
13
  7
SLDTEXTSTYLE0
 73
     1
 44
1.0
  0
MTEXT
  5
10E
330
1F
100
AcDbEntity
  8
0
  6
Continuous
 62
     7
370
     0
100
AcDbMText
 10
624.4200738929
 20
9.4930453383
 30
0.0
 40
3.96875
 41
0.0
 71
     2
 72
     1
  1
12
  7
SLDTEXTSTYLE0
 73
     1
 44
1.0
  0
MTEXT
  5
10F
330
1F
100
AcDbEntity
  8
0
  6
Continuous
 62
     7
370
     0
100
AcDbMText
 10
624.4200738929
 20
835.4930453383
 30
0.0
 40
3.96875
 41
0.0
 71
     2
 72
     1
  1
12
  7
SLDTEXTSTYLE0
 73
     1
 44
1.0
  0
MTEXT
  5
110
330
1F
100
AcDbEntity
  8
0
  6
Continuous
 62
     7
370
     0
100
AcDbMText
 10
674.4200738929
 20
9.4930453383
 30
0.0
 40
3.96875
 41
0.0
 71
     2
 72
     1
  1
11
  7
SLDTEXTSTYLE0
 73
     1
 44
1.0
  0
MTEXT
  5
111
330
1F
100
AcDbEntity
  8
0
  6
Continuous
 62
     7
370
     0
100
AcDbMText
 10
674.4200738929
 20
835.4930453383
 30
0.0
 40
3.96875
 41
0.0
 71
     2
 72
     1
  1
11
  7
SLDTEXTSTYLE0
 73
     1
 44
1.0
  0
MTEXT
  5
112
330
1F
100
AcDbEntity
  8
0
  6
Continuous
 62
     7
370
     0
100
AcDbMText
 10
724.4200738929
 20
9.4930453383
 30
0.0
 40
3.96875
 41
0.0
 71
     2
 72
     1
  1
10
  7
SLDTEXTSTYLE0
 73
     1
 44
1.0
  0
MTEXT
  5
113
330
1F
100
AcDbEntity
  8
0
  6
Continuous
 62
     7
370
     0
100
AcDbMText
 10
724.4200738929
 20
835.4930453383
 30
0.0
 40
3.96875
 41
0.0
 71
     2
 72
     1
  1
10
  7
SLDTEXTSTYLE0
 73
     1
 44
1.0
  0
MTEXT
  5
114
330
1F
100
AcDbEntity
  8
0
  6
Continuous
 62
     7
370
     0
100
AcDbMText
 10
774.4600369465
 20
9.4930453383
 30
0.0
 40
3.96875
 41
0.0
 71
     2
 72
     1
  1
9
  7
SLDTEXTSTYLE0
 73
     1
 44
1.0
  0
MTEXT
  5
115
330
1F
100
AcDbEntity
  8
0
  6
Continuous
 62
     7
370
     0
100
AcDbMText
 10
774.4600369465
 20
835.4930453383
 30
0.0
 40
3.96875
 41
0.0
 71
     2
 72
     1
  1
9
  7
SLDTEXTSTYLE0
 73
     1
 44
1.0
  0
MTEXT
  5
116
330
1F
100
AcDbEntity
  8
0
  6
Continuous
 62
     7
370
     0
100
AcDbMText
 10
824.4600369465
 20
9.4930453383
 30
0.0
 40
3.96875
 41
0.0
 71
     2
 72
     1
  1
8
  7
SLDTEXTSTYLE0
 73
     1
 44
1.0
  0
MTEXT
  5
117
330
1F
100
AcDbEntity
  8
0
  6
Continuous
 62
     7
370
     0
100
AcDbMText
 10
824.4600369465
 20
835.4930453383
 30
0.0
 40
3.96875
 41
0.0
 71
     2
 72
     1
  1
8
  7
SLDTEXTSTYLE0
 73
     1
 44
1.0
  0
MTEXT
  5
118
330
1F
100
AcDbEntity
  8
0
  6
Continuous
 62
     7
370
     0
100
AcDbMText
 10
874.4600369465
 20
9.4930453383
 30
0.0
 40
3.96875
 41
0.0
 71
     2
 72
     1
  1
7
  7
SLDTEXTSTYLE0
 73
     1
 44
1.0
  0
MTEXT
  5
119
330
1F
100
AcDbEntity
  8
0
  6
Continuous
 62
     7
370
     0
100
AcDbMText
 10
874.4600369465
 20
835.4930453383
 30
0.0
 40
3.96875
 41
0.0
 71
     2
 72
     1
  1
7
  7
SLDTEXTSTYLE0
 73
     1
 44
1.0
  0
MTEXT
  5
11A
330
1F
100
AcDbEntity
  8
0
  6
Continuous
 62
     7
370
     0
100
AcDbMText
 10
924.4600369465
 20
9.4930453383
 30
0.0
 40
3.96875
 41
0.0
 71
     2
 72
     1
  1
6
  7
SLDTEXTSTYLE0
 73
     1
 44
1.0
  0
MTEXT
  5
11B
330
1F
100
AcDbEntity
  8
0
  6
Continuous
 62
     7
370
     0
100
AcDbMText
 10
924.4600369465
 20
835.4930453383
 30
0.0
 40
3.96875
 41
0.0
 71
     2
 72
     1
  1
6
  7
SLDTEXTSTYLE0
 73
     1
 44
1.0
  0
MTEXT
  5
11C
330
1F
100
AcDbEntity
  8
0
  6
Continuous
 62
     7
370
     0
100
AcDbMText
 10
974.4600369465
 20
9.4930453383
 30
0.0
 40
3.96875
 41
0.0
 71
     2
 72
     1
  1
5
  7
SLDTEXTSTYLE0
 73
     1
 44
1.0
  0
MTEXT
  5
11D
330
1F
100
AcDbEntity
  8
0
  6
Continuous
 62
     7
370
     0
100
AcDbMText
 10
974.4600369465
 20
835.4930453383
 30
0.0
 40
3.96875
 41
0.0
 71
     2
 72
     1
  1
5
  7
SLDTEXTSTYLE0
 73
     1
 44
1.0
  0
MTEXT
  5
11E
330
1F
100
AcDbEntity
  8
0
  6
Continuous
 62
     7
370
     0
100
AcDbMText
 10
1024.4600369465
 20
9.4930453383
 30
0.0
 40
3.96875
 41
0.0
 71
     2
 72
     1
  1
4
  7
SLDTEXTSTYLE0
 73
     1
 44
1.0
  0
MTEXT
  5
11F
330
1F
100
AcDbEntity
  8
0
  6
Continuous
 62
     7
370
     0
100
AcDbMText
 10
1024.4600369465
 20
835.4930453383
 30
0.0
 40
3.96875
 41
0.0
 71
     2
 72
     1
  1
4
  7
SLDTEXTSTYLE0
 73
     1
 44
1.0
  0
MTEXT
  5
120
330
1F
100
AcDbEntity
  8
0
  6
Continuous
 62
     7
370
     0
100
AcDbMText
 10
1074.4600369465
 20
9.4930453383
 30
0.0
 40
3.96875
 41
0.0
 71
     2
 72
     1
  1
3
  7
SLDTEXTSTYLE0
 73
     1
 44
1.0
  0
MTEXT
  5
121
330
1F
100
AcDbEntity
  8
0
  6
Continuous
 62
     7
370
     0
100
AcDbMText
 10
1074.4600369465
 20
835.4930453383
 30
0.0
 40
3.96875
 41
0.0
 71
     2
 72
     1
  1
3
  7
SLDTEXTSTYLE0
 73
     1
 44
1.0
  0
MTEXT
  5
122
330
1F
100
AcDbEntity
  8
0
  6
Continuous
 62
     7
370
     0
100
AcDbMText
 10
1124.4600369465
 20
9.4930453383
 30
0.0
 40
3.96875
 41
0.0
 71
     2
 72
     1
  1
2
  7
SLDTEXTSTYLE0
 73
     1
 44
1.0
  0
MTEXT
  5
123
330
1F
100
AcDbEntity
  8
0
  6
Continuous
 62
     7
370
     0
100
AcDbMText
 10
1124.4600369465
 20
835.4930453383
 30
0.0
 40
3.96875
 41
0.0
 71
     2
 72
     1
  1
2
  7
SLDTEXTSTYLE0
 73
     1
 44
1.0
  0
MTEXT
  5
124
330
1F
100
AcDbEntity
  8
0
  6
Continuous
 62
     7
370
     0
100
AcDbMText
 10
1164.2100369465
 20
9.4930453383
 30
0.0
 40
3.96875
 41
0.0
 71
     2
 72
     1
  1
1
  7
SLDTEXTSTYLE0
 73
     1
 44
1.0
  0
MTEXT
  5
125
330
1F
100
AcDbEntity
  8
0
  6
Continuous
 62
     7
370
     0
100
AcDbMText
 10
1164.2100369465
 20
835.4930453383
 30
0.0
 40
3.96875
 41
0.0
 71
     2
 72
     1
  1
1
  7
SLDTEXTSTYLE0
 73
     1
 44
1.0
  0
MTEXT
  5
126
330
1F
100
AcDbEntity
  8
0
  6
Continuous
 62
     7
370
     0
100
AcDbMText
 10
1133.6183978304
 20
23.6069109673
 30
0.0
 40
6.35
 41
0.0
 71
     2
 72
     1
  1
Task 3_var13_22320630
  7
SLDTEXTSTYLE0
 73
     1
 44
1.0
  0
MTEXT
  5
127
330
1F
100
AcDbEntity
  8
0
  6
Continuous
 62
     7
370
     0
100
AcDbMText
 10
1054.6178111281
 20
12.9493119036
 30
0.0
 40
1.4986
 41
0.0
 71
     1
 72
     1
  1
dF
  7
SLDTEXTSTYLE0
 73
     1
 44
1.0
  0
MTEXT
  5
128
330
1F
100
AcDbEntity
  8
0
  6
Continuous
 62
     7
370
     0
100
AcDbMText
 10
1169.8711564346
 20
24.406388569
 30
0.0
 40
2.9104166667
 41
0.0
 71
     1
 72
     1
  1
A0
  7
SLDTEXTSTYLE0
 73
     1
 44
1.0
  0
MTEXT
  5
12A
330
1F
100
AcDbEntity
  8
0
  6
Continuous
 62
     7
370
     0
100
AcDbMText
 10
1143.4782944278
 20
12.9000872745
 30
0.0
 40
1.5
 41
0.0
 71
     1
 72
     1
  1
t 1 ^ 1
  7
SLDTEXTSTYLE1
 73
     1
 44
1.0
  0
MTEXT
  5
12B
330
1F
100
AcDbEntity
  8
0
  6
Continuous
 62
     7
370
     0
100
AcDbMText
 10
1099.0739661175
 20
12.9000872745
 30
0.0
 40
1.5
 41
0.0
 71
     1
 72
     1
  1
xF 2:1
  7
SLDTEXTSTYLE0
 73
     1
 44
1.0
  0
MTEXT
  5
12C
330
1F
100
AcDbEntity
  8
0
  6
Continuous
 62
     7
370
     0
100
AcDbMText
 10
1099.0739661175
 20
24.868637827
 30
0.0
 40
1.5
 41
0.0
 71
     1
 72
     1
  1
}F
  7
SLDTEXTSTYLE0
 73
     1
 44
1.0
  0
MTEXT
  5
12D
330
1F
100
AcDbEntity
  8
0
  6
Continuous
 62
     7
370
     0
100
AcDbMText
 10
1099.2022111393
 20
46.5761792212
 30
0.0
 40
1.5
 41
0.0
 71
     1
 72
     1
  1
F
  7
SLDTEXTSTYLE0
 73
     1
 44
1.0
  0
MTEXT
  5
12E
330
1F
100
AcDbEntity
  8
0
  6
Continuous
 62
     7
370
     0
100
AcDbMText
 10
1152.3275816993
 20
62.3349086805
 30
0.0
 40
1.5
 41
0.0
 71
     1
 72
     1
  1

  7
SLDTEXTSTYLE0
 73
     1
 44
1.0
  0
MTEXT
  5
12F
330
1F
100
AcDbEntity
  8
0
  6
Continuous
 62
     7
370
     0
100
AcDbMText
 10
1116.2891003724
 20
62.5329935751
 30
0.0
 40
1.5
 41
0.0
 71
     1
 72
     1
  1
}s
  7
SLDTEXTSTYLE0
 73
     1
 44
1.0
  0
MTEXT
  5
130
330
1F
100
AcDbEntity
  8
0
  6
Continuous
 62
     7
370
     0
100
AcDbMText
 10
1054.6458623088
 20
25.9860562892
 30
0.0
 40
1.5
 41
0.0
 71
     1
 72
     1
  1
F
  7
SLDTEXTSTYLE0
 73
     1
 44
1.0
  0
MTEXT
  5
131
330
1F
100
AcDbEntity
  8
0
  6
Continuous
 62
     7
370
     0
100
AcDbMText
 10
1046.2147019657
 20
46.5761792212
 30
0.0
 40
1.5
 41
0.0
 71
     1
 72
     1
  1
@t
  7
SLDTEXTSTYLE0
 73
     1
 44
1.0
  0
MTEXT
  5
132
330
1F
100
AcDbEntity
  8
0
  6
Continuous
 62
     7
370
     0
100
AcDbMText
 10
1029.0335875632
 20
46.5617563795
 30
0.0
 40
1.5
 41
0.0
 71
     1
 72
     1
  1
@@@
  7
SLDTEXTSTYLE0
 73
     1
 44
1.0
  0
MTEXT
  5
133
330
1F
100
AcDbEntity
  8
0
  6
Continuous
 62
     7
370
     0
100
AcDbMText
 10
1013.3222392177
 20
46.5014826335
 30
0.0
 40
1.5
 41
0.0
 71
     1
 72
     1
  1
@O
  7
SLDTEXTSTYLE0
 73
     1
 44
1.0
  0
MTEXT
  5
134
330
1F
100
AcDbEntity
  8
0
  6
Continuous
 62
     7
370
     0
100
AcDbMText
 10
1080.3092156863
 20
64.0030912527
 30
0.0
 40
1.5
 41
0.0
 71
     1
 72
     1
  1
oAsp
  7
SLDTEXTSTYLE0
 73
     1
 44
1.0
  0
MTEXT
  5
135
330
1F
100
AcDbEntity
  8
0
  6
Continuous
 62
     7
370
     0
100
AcDbMText
 10
1033.3712921668
 20
63.9192719951
 30
0.0
 40
1.5
 41
0.0
 71
     1
 72
     1
  1
dF
  7
SLDTEXTSTYLE0
 73
     1
 44
1.0
  0
MTEXT
  5
136
330
1F
100
AcDbEntity
  8
0
  6
Continuous
 62
     7
370
     0
100
AcDbMText
 10
999.5936687456
 20
63.9209714839
 30
0.0
 40
1.5
 41
0.0
 71
     1
 72
     1
  1
wF
  7
SLDTEXTSTYLE0
 73
     1
 44
1.0
  0
MTEXT
  5
137
330
1F
100
AcDbEntity
  8
0
  6
Continuous
 62
     7
370
     0
100
AcDbMText
 10
999.5936687456
 20
61.4209715398
 30
0.0
 40
1.5
 41
0.0
 71
     1
 72
     1
  1
@~[^@
  7
SLDTEXTSTYLE0
 73
     1
 44
1.0
  0
MTEXT
  5
138
330
1F
100
AcDbEntity
  8
0
  6
Continuous
 62
     7
370
     0
100
AcDbMText
 10
999.5936687456
 20
58.9209715957
 30
0.0
 40
1.5
 41
0.0
 71
     1
 72
     1
  1
\eF
  7
SLDTEXTSTYLE0
 73
     1
 44
1.0
  0
MTEXT
  5
139
330
1F
100
AcDbEntity
  8
0
  6
Continuous
 62
     7
370
     0
100
AcDbMText
 10
999.5936687456
 20
56.4209716516
 30
0.0
 40
1.5
 41
0.0
 71
     1
 72
     1
  1
@@F
  7
SLDTEXTSTYLE0
 73
     1
 44
1.0
  0
MTEXT
  5
13A
330
1F
100
AcDbEntity
  8
0
  6
Continuous
 62
     7
370
     0
100
AcDbMText
 10
999.5936687456
 20
53.9209717075
 30
0.0
 40
1.5
 41
0.0
 71
     1
 72
     1
  1
@@@F
  7
SLDTEXTSTYLE0
 73
     1
 44
1.0
  0
MTEXT
  5
13B
330
1F
100
AcDbEntity
  8
0
  6
Continuous
 62
     7
370
     0
100
AcDbMText
 10
999.5936687456
 20
51.4209717633
 30
0.0
 40
1.5
 41
0.0
 71
     1
 72
     1
  1
@px@F
  7
SLDTEXTSTYLE0
 73
     1
 44
1.0
  0
MTEXT
  5
13C
330
1F
100
AcDbEntity
  8
0
  6
Continuous
 62
     7
370
     0
100
AcDbMText
 10
1000.3371487396
 20
25.4117605109
 30
0.0
 40
1.5
 41
0.0
 71
     1
 72
     1
  1
i@
  7
SLDTEXTSTYLE0
 73
     1
 44
1.0
  0
MTEXT
  5
13D
330
1F
100
AcDbEntity
  8
0
  6
Continuous
 62
     7
370
     0
100
AcDbMText
 10
1000.3371487396
 20
22.9117605668
 30
0.0
 40
1.5
 41
0.0
 71
     1
 72
     1
  1

  7
SLDTEXTSTYLE0
 73
     1
 44
1.0
  0
MTEXT
  5
13E
330
1F
100
AcDbEntity
  8
0
  6
Continuous
 62
     7
370
     0
100
AcDbMText
 10
1000.2005221423
 20
29.7958159542
 30
0.0
 40
1.5
 41
0.0
 71
     1
 72
     1
  1
@Y
  7
SLDTEXTSTYLE0
 73
     1
 44
1.0
  0
MTEXT
  5
13F
330
1F
100
AcDbEntity
  8
0
  6
Continuous
 62
     7
370
     0
100
AcDbMText
 10
1000.1470580516
 20
34.1264073067
 30
0.0
 40
1.5
 41
0.0
 71
     1
 72
     1
  1
@F
  7
SLDTEXTSTYLE0
 73
     1
 44
1.0
  0
MTEXT
  5
140
330
1F
100
AcDbEntity
  8
0
  6
Continuous
 62
     7
370
     0
100
AcDbMText
 10
1000.1558045109
 20
38.2165184636
 30
0.0
 40
1.5
 41
0.0
 71
     1
 72
     1
  1
@}
  7
SLDTEXTSTYLE0
 73
     1
 44
1.0
  0
MTEXT
  5
141
330
1F
100
AcDbEntity
  8
0
  6
Continuous
 62
     7
370
     0
100
AcDbMText
 10
1000.1891741847
 20
42.4918261895
 30
0.0
 40
1.5
 41
0.0
 71
     1
 72
     1
  1
@}
  7
SLDTEXTSTYLE0
 73
     1
 44
1.0
  0
LINE
  5
142
330
1F
100
AcDbEntity
  8
0
  6
Continuous
 62
     7
370
    25
100
AcDbLine
 10
224.3670079631
 20
727.9144042608
 30
0.0
 11
224.3670079631
 21
527.9144042608
 31
0.0
  0
LINE
  5
143
330
1F
100
AcDbEntity
  8
0
  6
Continuous
 62
     7
370
    25
100
AcDbLine
 10
261.6829808246
 20
727.9144042608
 30
0.0
 11
224.3670079631
 21
727.9144042608
 31
0.0
  0
LINE
  5
144
330
1F
100
AcDbEntity
  8
0
  6
Continuous
 62
     7
370
    25
100
AcDbLine
 10
261.6829808246
 20
527.9144042608
 30
0.0
 11
261.6829808246
 21
727.9144042608
 31
0.0
  0
LINE
  5
145
330
1F
100
AcDbEntity
  8
0
  6
Continuous
 62
     7
370
    25
100
AcDbLine
 10
224.3670079631
 20
527.9144042608
 30
0.0
 11
261.6829808246
 21
527.9144042608
 31
0.0
  0
CIRCLE
  5
146
330
1F
100
AcDbEntity
  8
0
  6
Continuous
 62
     7
370
    25
100
AcDbCircle
 10
243.0249943938
 20
567.9144042608
 30
0.0
 40
10.0
  0
CIRCLE
  5
147
330
1F
100
AcDbEntity
  8
0
  6
Continuous
 62
     7
370
    25
100
AcDbCircle
 10
243.0249943938
 20
687.9144042608
 30
0.0
 40
10.0
  0
LINE
  5
148
330
1F
100
AcDbEntity
  8
0
  6
Continuous
 62
     7
370
    25
100
AcDbLine
 10
264.6293808246
 20
527.9144042608
 30
0.0
 11
264.6293808246
 21
727.9144042608
 31
0.0
  0
LINE
  5
149
330
1F
100
AcDbEntity
  8
0
  6
Continuous
 62
     7
370
    25
100
AcDbLine
 10
261.6829808246
 20
727.9144042608
 30
0.0
 11
264.6293808246
 21
727.9144042608
 31
0.0
  0
LINE
  5
14A
330
1F
100
AcDbEntity
  8
0
  6
Continuous
 62
     7
370
    25
100
AcDbLine
 10
264.6293808246
 20
527.9144042608
 30
0.0
 11
261.6829808246
 21
527.9144042608
 31
0.0
  0
LINE
  5
14B
330
1F
100
AcDbEntity
  8
0
  6
Continuous
 62
     7
370
    25
100
AcDbLine
 10
266.1025808246
 20
527.9144042608
 30
0.0
 11
266.1025808246
 21
727.9144042608
 31
0.0
  0
LINE
  5
14C
330
1F
100
AcDbEntity
  8
0
  6
Continuous
 62
     7
370
    25
100
AcDbLine
 10
266.1025808246
 20
527.9144042608
 30
0.0
 11
264.6293808246
 21
527.9144042608
 31
0.0
  0
LINE
  5
14D
330
1F
100
AcDbEntity
  8
0
  6
Continuous
 62
     7
370
    25
100
AcDbLine
 10
264.6293808246
 20
727.9144042608
 30
0.0
 11
266.1025808246
 21
727.9144042608
 31
0.0
  0
LINE
  5
14E
330
1F
100
AcDbEntity
  8
0
  6
Continuous
 62
     7
370
    25
100
AcDbLine
 10
464.3670079631
 20
727.9144042608
 30
0.0
 11
266.1025808246
 21
727.9144042608
 31
0.0
  0
LINE
  5
14F
330
1F
100
AcDbEntity
  8
0
  6
Continuous
 62
     7
370
    25
100
AcDbLine
 10
464.3670079631
 20
527.9144042608
 30
0.0
 11
464.3670079631
 21
727.9144042608
 31
0.0
  0
CIRCLE
  5
150
330
1F
100
AcDbEntity
  8
0
  6
Continuous
 62
     7
370
    25
100
AcDbCircle
 10
364.3670079631
 20
627.9144042608
 30
0.0
 40
24.0
  0
LINE
  5
151
330
1F
100
AcDbEntity
  8
0
  6
Continuous
 62
     7
370
    25
100
AcDbLine
 10
266.1025808246
 20
527.9144042608
 30
0.0
 11
464.3670079631
 21
527.9144042608
 31
0.0
  0
DIMENSION
  5
152
330
1F
100
AcDbEntity
  8
0
  6
Continuous
 62
     7
370
    18
100
AcDbDimension
  2
_D
 10
540.3670079631
 20
727.9144042608
 30
0.0
 11
540.3670079631
 21
640.6675540243
 31
0.0
 70
   160
  1
<>
 71
     2
 42
-1.0
  3
SLDDIMSTYLE0
100
AcDbAlignedDimension
 13
464.3670079631
 23
527.9144042608
 33
0.0
 14
464.3670079631
 24
727.9144042608
 34
0.0
 50
90.0
100
AcDbRotatedDimension
  0
DIMENSION
  5
15D
330
1F
100
AcDbEntity
  8
0
  6
Continuous
 62
     7
370
    18
100
AcDbDimension
  2
_D_1
 10
261.6829808246
 20
785.9144042608
 30
0.0
 11
386.5056518376
 21
785.9144042608
 31
0.0
 70
   160
  1
<>
 71
     2
 42
-1.0
  3
SLDDIMSTYLE1
100
AcDbAlignedDimension
 13
464.3670079631
 23
727.9144042608
 33
0.0
 14
261.6829808246
 24
727.9144042608
 34
0.0
100
AcDbRotatedDimension
  0
DIMENSION
  5
168
330
1F
100
AcDbEntity
  8
0
  6
Continuous
 62
     7
370
    18
100
AcDbDimension
  2
_D_2
 10
347.0459757633
 20
611.3017029893
 30
0.0
 11
415.9205812676
 21
677.3597323445
 31
0.0
 70
   163
  1
<>
 71
     1
 42
-1.0
  3
SLDDIMSTYLE2
100
AcDbDiametricDimension
 15
381.6880401629
 25
644.5271055322
 35
0.0
 40
0.0
  0
INSERT
  5
180
330
1F
100
AcDbEntity
  8
0
  6
Continuous
 62
     7
370
     0
100
AcDbBlockReference
  2
SW_CENTERMARKSYMBOL_0
 10
364.3670079631
 20
627.9144042608
 30
0.0
  0
INSERT
  5
18C
330
1F
100
AcDbEntity
  8
0
  6
Continuous
 62
     7
370
     0
100
AcDbBlockReference
  2
SW_CENTERMARKSYMBOL_1
 10
243.0249943938
 20
567.9144042608
 30
0.0
  0
INSERT
  5
198
330
1F
100
AcDbEntity
  8
0
  6
Continuous
 62
     7
370
     0
100
AcDbBlockReference
  2
SW_CENTERMARKSYMBOL_2
 10
243.0249943938
 20
687.9144042608
 30
0.0
  0
LINE
  5
199
330
1F
100
AcDbEntity
  8
0
  6
Continuous
 62
     7
370
    25
100
AcDbLine
 10
904.0935553804
 20
527.9144042608
 30
0.0
 11
905.5667553804
 21
527.9144042608
 31
0.0
  0
LINE
  5
19A
330
1F
100
AcDbEntity
  8
0
  6
Continuous
 62
     7
370
    25
100
AcDbLine
 10
904.0935553804
 20
727.9144042608
 30
0.0
 11
904.0935553804
 21
527.9144042608
 31
0.0
  0
LINE
  5
19B
330
1F
100
AcDbEntity
  8
0
  6
Continuous
 62
     7
370
    25
100
AcDbLine
 10
904.0935553804
 20
727.9144042608
 30
0.0
 11
905.5667553804
 21
727.9144042608
 31
0.0
  0
LINE
  5
19C
330
1F
100
AcDbEntity
  8
0
  6
Continuous
 62
     7
370
    25
100
AcDbLine
 10
905.5667553804
 20
727.9144042608
 30
0.0
 11
905.5667553804
 21
527.9144042608
 31
0.0
  0
LINE
  5
19D
330
1F
100
AcDbEntity
  8
0
  6
Continuous
 62
     7
370
    25
100
AcDbLine
 10
902.6203553804
 20
527.9144042608
 30
0.0
 11
904.0935553804
 21
527.9144042608
 31
0.0
  0
LINE
  5
19E
330
1F
100
AcDbEntity
  8
0
  6
Continuous
 62
     7
370
    25
100
AcDbLine
 10
902.6203553804
 20
527.9144042608
 30
0.0
 11
902.6203553804
 21
727.9144042608
 31
0.0
  0
LINE
  5
19F
330
1F
100
AcDbEntity
  8
0
  6
Continuous
 62
     7
370
    25
100
AcDbLine
 10
904.0935553804
 20
727.9144042608
 30
0.0
 11
902.6203553804
 21
727.9144042608
 31
0.0
  0
LINE
  5
1A0
330
1F
100
AcDbEntity
  8
0
  6
Continuous
 62
     7
370
    25
100
AcDbLine
 10
827.0399553804
 20
527.9144042608
 30
0.0
 11
827.0399553804
 21
727.9144042608
 31
0.0
  0
LINE
  5
1A1
330
1F
100
AcDbEntity
  8
0
  6
Continuous
 62
     7
370
    25
100
AcDbLine
 10
824.0935553804
 20
527.9144042608
 30
0.0
 11
827.0399553804
 21
527.9144042608
 31
0.0
  0
LINE
  5
1A2
330
1F
100
AcDbEntity
  8
0
  6
Continuous
 62
     7
370
    25
100
AcDbLine
 10
824.0935553804
 20
527.9144042608
 30
0.0
 11
824.0935553804
 21
727.9144042608
 31
0.0
  0
LINE
  5
1A3
330
1F
100
AcDbEntity
  8
0
  6
Continuous
 62
     7
370
    25
100
AcDbLine
 10
827.0399553804
 20
727.9144042608
 30
0.0
 11
824.0935553804
 21
727.9144042608
 31
0.0
  0
LINE
  5
1A4
330
1F
100
AcDbEntity
  8
0
  6
Continuous
 62
     7
370
    25
100
AcDbLine
 10
827.0399553804
 20
727.9144042608
 30
0.0
 11
902.6203553804
 21
727.9144042608
 31
0.0
  0
LINE
  5
1A5
330
1F
100
AcDbEntity
  8
0
  6
Continuous
 62
     7
370
    25
100
AcDbLine
 10
902.6203553804
 20
527.9144042608
 30
0.0
 11
827.0399553804
 21
527.9144042608
 31
0.0
  0
CIRCLE
  5
1A6
330
1F
100
AcDbEntity
  8
0
  6
Continuous
 62
     7
370
    25
100
AcDbCircle
 10
864.8301553804
 20
567.9144042608
 30
0.0
 40
15.0
  0
CIRCLE
  5
1A7
330
1F
100
AcDbEntity
  8
0
  6
Continuous
 62
     7
370
    25
100
AcDbCircle
 10
864.8301553804
 20
687.9144042608
 30
0.0
 40
15.0
  0
DIMENSION
  5
1A8
330
1F
100
AcDbEntity
  8
0
  6
Continuous
 62
     7
370
    18
100
AcDbDimension
  2
_D_3
 10
905.5667553804
 20
790.9010005534
 30
0.0
 11
865.137586599
 21
790.9010005534
 31
0.0
 70
   160
  1
<>
 71
     2
 42
-1.0
  3
SLDDIMSTYLE1
100
AcDbAlignedDimension
 13
824.0935553804
 23
727.9144042608
 33
0.0
 14
905.5667553804
 24
727.9144042608
 34
0.0
100
AcDbRotatedDimension
  0
DIMENSION
  5
1B2
330
1F
100
AcDbEntity
  8
0
  6
Continuous
 62
     7
370
    18
100
AcDbDimension
  2
_D_4
 10
855.3392837062
 20
676.298752972
 30
0.0
 11
883.3969050192
 21
710.6378037045
 31
0.0
 70
   163
  1
<>
 71
     1
 42
-1.0
  3
SLDDIMSTYLE2
100
AcDbDiametricDimension
 15
874.3210270547
 25
699.5300555496
 35
0.0
 40
0.0
  0
DIMENSION
  5
1BB
330
1F
100
AcDbEntity
  8
0
  6
Continuous
 62
     7
370
    18
100
AcDbDimension
  2
_D_5
 10
855.1878495089
 20
556.4241502393
 30
0.0
 11
885.4863648064
 21
592.5293747988
 31
0.0
 70
   163
  1
<>
 71
     1
 42
-1.0
  3
SLDDIMSTYLE2
100
AcDbDiametricDimension
 15
874.472461252
 25
579.4046582823
 35
0.0
 40
0.0
  0
INSERT
  5
1CF
330
1F
100
AcDbEntity
  8
0
  6
Continuous
 62
     7
370
     0
100
AcDbBlockReference
  2
SW_CENTERMARKSYMBOL_3
 10
864.8301553804
 20
567.9144042608
 30
0.0
  0
INSERT
  5
1DB
330
1F
100
AcDbEntity
  8
0
  6
Continuous
 62
     7
370
     0
100
AcDbBlockReference
  2
SW_CENTERMARKSYMBOL_4
 10
864.8301553804
 20
687.9144042608
 30
0.0
  0
LINE
  5
1DC
330
1F
100
AcDbEntity
  8
0
  6
Continuous
 62
     7
370
    25
100
AcDbLine
 10
264.6293808246
 20
235.5018930338
 30
0.0
 11
264.6293808246
 21
159.9214930338
 31
0.0
  0
LINE
  5
1DD
330
1F
100
AcDbEntity
  8
0
  6
Continuous
 62
     7
370
    25
100
AcDbLine
 10
263.1561808246
 20
159.9214930338
 30
0.0
 11
264.6293808246
 21
159.9214930338
 31
0.0
  0
LINE
  5
1DE
330
1F
100
AcDbEntity
  8
0
  6
Continuous
 62
     7
370
    25
100
AcDbLine
 10
263.1561808246
 20
235.5018930338
 30
0.0
 11
264.6293808246
 21
235.5018930338
 31
0.0
  0
LINE
  5
1DF
330
1F
100
AcDbEntity
  8
0
  6
Continuous
 62
     7
370
    25
100
AcDbLine
 10
263.1561808246
 20
235.5018930338
 30
0.0
 11
263.1561808246
 21
159.9214930338
 31
0.0
  0
LINE
  5
1E0
330
1F
100
AcDbEntity
  8
0
  6
Continuous
 62
     7
370
    25
100
AcDbLine
 10
224.3670079631
 20
236.9750930338
 30
0.0
 11
224.3670079631
 21
238.4482930338
 31
0.0
  0
LINE
  5
1E1
330
1F
100
AcDbEntity
  8
0
  6
Continuous
 62
     7
370
    25
100
AcDbLine
 10
261.6829808246
 20
236.9750930338
 30
0.0
 11
261.6829808246
 21
238.4482930338
 31
0.0
  0
LINE
  5
1E2
330
1F
100
AcDbEntity
  8
0
  6
Continuous
 62
     7
370
    25
100
AcDbLine
 10
224.3670079631
 20
236.9750930338
 30
0.0
 11
261.6829808246
 21
236.9750930338
 31
0.0
  0
LINE
  5
1E3
330
1F
100
AcDbEntity
  8
0
  6
Continuous
 62
     7
370
    25
100
AcDbLine
 10
224.3670079631
 20
238.4482930338
 30
0.0
 11
261.6829808246
 21
238.4482930338
 31
0.0
  0
ARC
  5
1E4
330
1F
100
AcDbEntity
  8
0
  6
Continuous
 62
     7
370
    25
100
AcDbCircle
 10
266.1025808246
 20
159.9214930338
 30
0.0
 40
1.47320000000002
100
AcDbArc
 50
180.0
 51
270.0
  0
LINE
  5
1E5
330
1F
100
AcDbEntity
  8
0
  6
Continuous
 62
     7
370
    25
100
AcDbLine
 10
266.1025808246
 20
156.9750930338
 30
0.0
 11
266.1025808246
 21
158.4482930338
 31
0.0
  0
ARC
  5
1E6
330
1F
100
AcDbEntity
  8
0
  6
Continuous
 62
     7
370
    25
100
AcDbCircle
 10
266.1025808246
 20
159.9214930338
 30
0.0
 40
2.94640000000004
100
AcDbArc
 50
180.0
 51
270.0
  0
ARC
  5
1E7
330
1F
100
AcDbEntity
  8
0
  6
Continuous
 62
     7
370
    25
100
AcDbCircle
 10
261.6829808246
 20
235.5018930338
 30
0.0
 40
1.473200000000048
100
AcDbArc
 50
0.0
 51
90.0
  0
ARC
  5
1E8
330
1F
100
AcDbEntity
  8
0
  6
Continuous
 62
     7
370
    25
100
AcDbCircle
 10
261.6829808246
 20
235.5018930338
 30
0.0
 40
2.94640000000004
100
AcDbArc
 50
0.0
 51
90.0
  0
LINE
  5
1E9
330
1F
100
AcDbEntity
  8
0
  6
Continuous
 62
     7
370
    25
100
AcDbLine
 10
266.1025808246
 20
158.4482930338
 30
0.0
 11
464.3670079631
 21
158.4482930338
 31
0.0
  0
LINE
  5
1EA
330
1F
100
AcDbEntity
  8
0
  6
Continuous
 62
     7
370
    25
100
AcDbLine
 10
464.3670079631
 20
156.9750930338
 30
0.0
 11
464.3670079631
 21
158.4482930338
 31
0.0
  0
LINE
  5
1EB
330
1F
100
AcDbEntity
  8
0
  6
Continuous
 62
     7
370
    25
100
AcDbLine
 10
266.1025808246
 20
156.9750930338
 30
0.0
 11
464.3670079631
 21
156.9750930338
 31
0.0
  0
DIMENSION
  5
1EC
330
1F
100
AcDbEntity
  8
0
  6
Continuous
 62
     7
370
    18
100
AcDbDimension
  2
_D_6
 10
239.4335781465
 20
159.9214930338
 30
0.0
 11
239.4335781465
 21
122.9750930338
 31
0.0
 70
   160
  1
<>
 71
     2
 42
-1.0
  3
SLDDIMSTYLE1
100
AcDbAlignedDimension
 13
263.1561808246
 23
235.5018930338
 33
0.0
 14
263.1561808246
 24
159.9214930338
 34
0.0
 50
90.0
100
AcDbRotatedDimension
  0
LINE
  5
1F7
330
1F
100
AcDbEntity
  8
0
  6
Continuous
 62
     7
370
    25
100
AcDbLine
 10
991.6006410526
 20
363.0588385619
 30
0.0
 11
851.4065201549
 21
282.126495261
 31
0.0
  0
LINE
  5
1F8
330
1F
100
AcDbEntity
  8
0
  6
Continuous
 62
     7
370
    25
100
AcDbLine
 10
991.6006410526
 20
199.7506761848
 30
0.0
 11
991.6006410526
 21
363.0588385619
 31
0.0
  0
LINE
  5
1F9
330
1F
100
AcDbEntity
  8
0
  6
Continuous
 62
     7
370
    25
100
AcDbLine
 10
851.4065201549
 20
118.8183328839
 30
0.0
 11
991.6006410526
 21
199.7506761848
 31
0.0
  0
LINE
  5
1FA
330
1F
100
AcDbEntity
  8
0
  6
Continuous
 62
     7
370
    25
100
AcDbLine
 10
851.4065201549
 20
118.8183328839
 30
0.0
 11
851.4065201549
 21
282.126495261
 31
0.0
  0
LWPOLYLINE
  5
1FB
330
1F
100
AcDbEntity
  8
0
  6
Continuous
 62
     7
370
    25
100
AcDbPolyline
 90
       66
 70
   128
 43
0.0
 10
920.889962934
 20
220.9873722969
 10
922.5278584849
 20
222.0243951309
 10
924.1504614465
 20
223.2347072794
 10
925.7426220119
 20
224.6070083839
 10
927.289474607
 20
226.128485639
 10
928.7765766858
 20
227.7849334213
 10
930.190043577
 20
229.5608859242
 10
931.516678121
 20
231.4397615577
 10
932.7440938884
 20
233.4040177663
 10
933.8608308291
 20
235.435314819
 10
934.8564622711
 20
237.5146870424
 10
935.7216922718
 20
239.6227198984
 10
936.4484424119
 20
241.7397312523
 10
937.0299272211
 20
243.8459551393
 10
937.4607175324
 20
245.9217263146
 10
937.7367911728
 20
247.9476638619
 10
937.8555705171
 20
249.9048521483
 10
937.8159465545
 20
251.7750174341
 10
937.6182892432
 20
253.5406984898
 10
937.2644440565
 20
255.1854096272
 10
936.7577147513
 20
256.6937946215
 10
936.1028325228
 20
258.0517700885
 10
935.3059118298
 20
259.2466569771
 10
934.3743933061
 20
260.2672989504
 10
933.3169742892
 20
261.1041665493
 10
932.1435276156
 20
261.7494461665
 10
930.8650094406
 20
262.197113
 10
929.4933569441
 20
262.4429873052
 10
928.0413768757
 20
262.4847734201
 10
926.5226259822
 20
262.3220811989
 10
924.9512844315
 20
261.956429655
 10
923.3420234161
 20
261.3912327784
 10
921.7098681728
 20
260.6317676601
 10
920.0700576951
 20
259.6851252212
 10
918.4379024518
 20
258.5601440071
 10
916.8286414365
 20
257.2673276644
 10
915.2572998857
 20
255.8187468708
 10
913.7385489922
 20
254.2279266349
 10
912.2865689239
 20
252.5097200167
 10
910.9149164273
 20
250.6801694484
 10
909.6363982524
 20
248.7563569508
 10
908.4629515787
 20
246.7562446427
 10
907.4055325618
 20
244.6985070338
 10
906.4740140382
 20
242.602356666
 10
905.6770933452
 20
240.4873647302
 10
905.0222111166
 20
238.3732783364
 10
904.5154818115
 20
236.2798361396
 10
904.1616366247
 20
234.2265840456
 10
903.9639793135
 20
232.2326927159
 10
903.9243553509
 20
230.3167785767
 10
904.0431346951
 20
228.4967300021
 10
904.3192083355
 20
226.7895402952
 10
904.7499986468
 20
225.2111490264
 10
905.331483456
 20
223.7762932096
 10
906.0582335961
 20
222.498369707
 10
906.9234635968
 20
221.389310146
 10
907.9190950388
 20
220.459469517
 10
909.0358319795
 20
219.7175294914
 10
910.263247747
 20
219.1704173632
 10
911.589882291
 20
218.823241371
 10
913.0033491821
 20
218.6792430035
 10
914.490451261
 20
218.7397667346
 10
916.037303856
 20
219.0042474707
 10
917.6294644215
 20
219.4702158263
 10
919.252067383
 20
220.1333211804
 10
920.889962934
 20
220.9873722969
  0
LINE
  5
1FC
330
1F
100
AcDbEntity
  8
0
  6
Continuous
 62
     7
370
    25
100
AcDbLine
 10
992.6423507627
 20
199.1493099696
 30
0.0
 11
991.6006410526
 21
199.7506761848
 31
0.0
  0
LINE
  5
1FD
330
1F
100
AcDbEntity
  8
0
  6
Continuous
 62
     7
370
    25
100
AcDbLine
 10
852.4482298649
 20
118.2169666687
 30
0.0
 11
992.6423507627
 21
199.1493099696
 31
0.0
  0
LINE
  5
1FE
330
1F
100
AcDbEntity
  8
0
  6
Continuous
 62
     7
370
    25
100
AcDbLine
 10
852.4482298649
 20
118.2169666687
 30
0.0
 11
851.4065201549
 21
118.8183328839
 31
0.0
  0
LINE
  5
1FF
330
1F
100
AcDbEntity
  8
0
  6
Continuous
 62
     7
370
    25
100
AcDbLine
 10
992.6423507627
 20
362.4574723467
 30
0.0
 11
991.6006410526
 21
363.0588385619
 31
0.0
  0
LINE
  5
200
330
1F
100
AcDbEntity
  8
0
  6
Continuous
 62
     7
370
    25
100
AcDbLine
 10
992.6423507627
 20
199.1493099696
 30
0.0
 11
992.6423507627
 21
362.4574723467
 31
0.0
  0
ARC
  5
201
330
1F
100
AcDbEntity
  8
0
  6
Continuous
 62
     7
370
    25
100
AcDbCircle
 10
793.7962679499
 20
147.0587001258
 30
0.0
 40
2.264340674735442
100
AcDbArc
 50
62.6096722366
 51
117.3903277634
  0
LINE
  5
202
330
1F
100
AcDbEntity
  8
0
  6
Continuous
 62
     7
370
    25
100
AcDbLine
 10
792.7545582399
 20
149.0691924961
 30
0.0
 11
791.7128485298
 21
149.6705587113
 31
0.0
  0
ARC
  5
203
330
1F
100
AcDbEntity
  8
0
  6
Continuous
 62
     7
370
    25
100
AcDbCircle
 10
793.7962679499
 20
145.6495739706
 30
0.0
 40
4.52868134947144
100
AcDbArc
 50
62.6096722366
 51
117.3903277634
  0
LINE
  5
204
330
1F
100
AcDbEntity
  8
0
  6
Continuous
 62
     7
370
    25
100
AcDbLine
 10
794.83797766
 20
149.0691924961
 30
0.0
 11
795.87968737
 21
149.6705587113
 31
0.0
  0
LINE
  5
205
330
1F
100
AcDbEntity
  8
0
  6
Continuous
 62
     7
370
    25
100
AcDbLine
 10
795.87968737
 20
149.6705587113
 30
0.0
 11
795.87968737
 21
312.9787210884
 31
0.0
  0
LINE
  5
206
330
1F
100
AcDbEntity
  8
0
  6
Continuous
 62
     7
370
    25
100
AcDbLine
 10
791.7128485298
 20
149.6705587113
 30
0.0
 11
791.7128485298
 21
312.9787210884
 31
0.0
  0
ARC
  5
207
330
1F
100
AcDbEntity
  8
0
  6
Continuous
 62
     7
370
    25
100
AcDbCircle
 10
793.7962679499
 20
308.9577363477
 30
0.0
 40
4.528681349471238
100
AcDbArc
 50
62.6096722366
 51
117.3903277634
  0
LINE
  5
208
330
1F
100
AcDbEntity
  8
0
  6
Continuous
 62
     7
370
    25
100
AcDbLine
 10
766.368180783
 20
133.8366610238
 30
0.0
 11
765.3264710729
 21
134.4380272389
 31
0.0
  0
LINE
  5
209
330
1F
100
AcDbEntity
  8
0
  6
Continuous
 62
     7
370
    25
100
AcDbLine
 10
765.3264710729
 20
134.4380272389
 30
0.0
 11
791.7128485298
 21
149.6705587113
 31
0.0
  0
LINE
  5
20A
330
1F
100
AcDbEntity
  8
0
  6
Continuous
 62
     7
370
    25
100
AcDbLine
 10
766.368180783
 20
133.8366610238
 30
0.0
 11
792.7545582399
 21
149.0691924961
 31
0.0
  0
LINE
  5
20B
330
1F
100
AcDbEntity
  8
0
  6
Continuous
 62
     7
370
    25
100
AcDbLine
 10
765.3264710729
 20
297.7461896161
 30
0.0
 11
765.3264710729
 21
134.4380272389
 31
0.0
  0
LINE
  5
20C
330
1F
100
AcDbEntity
  8
0
  6
Continuous
 62
     7
370
    25
100
AcDbLine
 10
791.7128485298
 20
312.9787210884
 30
0.0
 11
765.3264710729
 21
297.7461896161
 31
0.0
  0
LWPOLYLINE
  5
20D
330
1F
100
AcDbEntity
  8
0
  6
Continuous
 62
     7
370
    25
100
AcDbPolyline
 90
       43
 70
   128
 43
0.0
 10
778.5196598014
 20
182.8813335694
 10
777.4657718304
 20
182.1817361316
 10
776.4354259752
 20
181.3153648201
 10
775.4516384596
 20
180.3015729383
 10
774.536385471
 20
179.1630069217
 10
773.7101122488
 20
177.9251004535
 10
772.9912763714
 20
176.6155063188
 10
772.3959354444
 20
175.2634786865
 10
771.9373884004
 20
173.8992196197
 10
771.6258784227
 20
172.5532044116
 10
771.4683641293
 20
171.2555008176
 10
771.4683641293
 20
170.0350973919
 10
771.6258784227
 20
168.9192559301
 10
771.9373884004
 20
167.9329024867
 10
772.3959354444
 20
167.0980705676
 10
772.9912763714
 20
166.4334089386
 10
773.7101122488
 20
165.953765042
 10
774.536385471
 20
165.6698533299
 10
775.4516384596
 20
165.5880159207
 10
776.4354259752
 20
165.7100809271
 10
777.4657718304
 20
166.0333216184
 10
778.5196598014
 20
166.5505173317
 10
779.5735477724
 20
167.2501147695
 10
780.6038936275
 20
168.116486081
 10
781.5876811432
 20
169.1302779628
 10
782.5029341317
 20
170.2688439794
 10
783.3292073539
 20
171.5067504475
 10
784.0480432314
 20
172.8163445822
 10
784.6433841583
 20
174.1683722146
 10
785.1019312023
 20
175.5326312814
 10
785.4134411801
 20
176.8786464895
 10
785.5709554735
 20
178.1763500834
 10
785.5709554735
 20
179.3967535092
 10
785.4134411801
 20
180.512594971
 10
785.1019312023
 20
181.4989484144
 10
784.6433841583
 20
182.3337803334
 10
784.0480432314
 20
182.9984419625
 10
783.3292073539
 20
183.4780858591
 10
782.5029341317
 20
183.7619975712
 10
781.5876811432
 20
183.8438349804
 10
780.6038936275
 20
183.721769974
 10
779.5735477724
 20
183.3985292827
 10
778.5196598014
 20
182.8813335694
  0
LWPOLYLINE
  5
20E
330
1F
100
AcDbEntity
  8
0
  6
Continuous
 62
     7
370
    25
100
AcDbPolyline
 90
       43
 70
   128
 43
0.0
 10
778.5196598014
 20
264.535414758
 10
779.5735477724
 20
265.2350121958
 10
780.6038936275
 20
266.1013835073
 10
781.5876811432
 20
267.115175389
 10
782.5029341317
 20
268.2537414057
 10
783.3292073539
 20
269.4916478738
 10
784.0480432314
 20
270.8012420085
 10
784.6433841583
 20
272.1532696409
 10
785.1019312023
 20
273.5175287077
 10
785.4134411801
 20
274.8635439158
 10
785.5709554735
 20
276.1612475097
 10
785.5709554735
 20
277.3816509355
 10
785.4134411801
 20
278.4974923973
 10
785.1019312023
 20
279.4838458407
 10
784.6433841583
 20
280.3186777597
 10
784.0480432314
 20
280.9833393888
 10
783.3292073539
 20
281.4629832854
 10
782.5029341317
 20
281.7468949975
 10
781.5876811432
 20
281.8287324067
 10
780.6038936275
 20
281.7066674003
 10
779.5735477724
 20
281.383426709
 10
778.5196598014
 20
280.8662309957
 10
777.4657718304
 20
280.1666335579
 10
776.4354259752
 20
279.3002622464
 10
775.4516384596
 20
278.2864703646
 10
774.536385471
 20
277.147904348
 10
773.7101122488
 20
275.9099978798
 10
772.9912763714
 20
274.6004037451
 10
772.3959354444
 20
273.2483761128
 10
771.9373884004
 20
271.884117046
 10
771.6258784227
 20
270.5381018378
 10
771.4683641293
 20
269.2403982439
 10
771.4683641293
 20
268.0199948181
 10
771.6258784227
 20
266.9041533564
 10
771.9373884004
 20
265.9177999129
 10
772.3959354444
 20
265.0829679939
 10
772.9912763714
 20
264.4183063649
 10
773.7101122488
 20
263.9386624683
 10
774.536385471
 20
263.6547507561
 10
775.4516384596
 20
263.572913347
 10
776.4354259752
 20
263.6949783534
 10
777.4657718304
 20
264.0182190446
 10
778.5196598014
 20
264.535414758
  0
LINE
  5
20F
330
1F
100
AcDbEntity
  8
0
  6
Continuous
 62
     7
370
    25
100
AcDbLine
 10
849.3231007348
 20
282.126495261
 30
0.0
 11
795.87968737
 21
312.9787210884
 31
0.0
  0
LINE
  5
210
330
1F
100
AcDbEntity
  8
0
  6
Continuous
 62
     7
370
    25
100
AcDbLine
 10
849.3231007348
 20
118.8183328839
 30
0.0
 11
849.3231007348
 21
282.126495261
 31
0.0
  0
LINE
  5
211
330
1F
100
AcDbEntity
  8
0
  6
Continuous
 62
     7
370
    25
100
AcDbLine
 10
795.87968737
 20
149.6705587113
 30
0.0
 11
849.3231007348
 21
118.8183328839
 31
0.0
  0
LWPOLYLINE
  5
212
330
1F
100
AcDbEntity
  8
0
  6
Continuous
 62
     7
370
    25
100
AcDbPolyline
 90
       52
 70
   128
 43
0.0
 10
811.9947923346
 20
173.0291391117
 10
812.0751849698
 20
171.4775798618
 10
812.3151442048
 20
169.8567213078
 10
812.7110325022
 20
168.1911340131
 10
813.2568485991
 20
166.5060665833
 10
813.9443184798
 20
164.8270629229
 10
814.7630208016
 20
163.1795750161
 10
815.7005448718
 20
161.5885771
 10
816.7426787814
 20
160.0781870813
 10
817.8736248424
 20
158.6713009332
 10
819.0762390653
 20
157.3892456154
 10
820.3322910446
 20
156.2514557798
 10
821.6227403124
 20
155.2751791605
 10
822.9280249734
 20
154.4752151158
 10
824.2283582426
 20
153.8636902853
 10
825.504028393
 20
153.449874762
 10
826.7356975657
 20
153.2400415674
 10
827.9046949113
 20
153.2373715589
 10
828.9932996218
 20
153.441905211
 10
829.9850095595
 20
153.8505420022
 10
830.8647914125
 20
154.4570874151
 10
831.6193085848
 20
155.2523468397
 10
832.2371233651
 20
156.2242649536
 10
832.7088703111
 20
157.358108469
 10
833.0273982201
 20
158.6366894739
 10
833.1878785335
 20
160.0406259837
 10
833.1878785335
 20
161.548635752
 10
833.0273982201
 20
163.1378588878
 10
832.7088703111
 20
164.7842043884
 10
832.2371233651
 20
166.4627153341
 10
831.6193085848
 20
168.14794721
 10
830.8647914125
 20
169.8143536188
 10
829.9850095595
 20
171.4366735378
 10
828.9932996218
 20
172.9903142509
 10
827.9046949113
 20
174.4517241485
 10
826.7356975657
 20
175.7987497462
 10
825.504028393
 20
177.010971509
 10
824.2283582426
 20
178.0700133908
 10
822.9280249734
 20
178.9598213961
 10
821.6227403124
 20
179.6669069425
 10
820.3322910446
 20
180.180551334
 10
819.0762390653
 20
180.4929682451
 10
817.8736248424
 20
180.599421754
 10
816.7426787814
 20
180.4982981339
 10
815.7005448718
 20
180.1911303158
 10
814.7630208016
 20
179.6825746509
 10
813.9443184798
 20
178.9803403245
 10
813.2568485991
 20
178.0950724932
 10
812.7110325022
 20
177.040190915
 10
812.3151442048
 20
175.8316865192
 10
812.0751849698
 20
174.4878790007
 10
811.9947923346
 20
173.0291391117
  0
LWPOLYLINE
  5
213
330
1F
100
AcDbEntity
  8
0
  6
Continuous
 62
     7
370
    25
100
AcDbPolyline
 90
       52
 70
   128
 43
0.0
 10
811.9947923346
 20
271.014036538
 10
812.0751849698
 20
269.4624772881
 10
812.3151442048
 20
267.8416187341
 10
812.7110325022
 20
266.1760314394
 10
813.2568485991
 20
264.4909640096
 10
813.9443184798
 20
262.8119603492
 10
814.7630208016
 20
261.1644724424
 10
815.7005448718
 20
259.5734745263
 10
816.7426787814
 20
258.0630845076
 10
817.8736248424
 20
256.6561983594
 10
819.0762390653
 20
255.3741430417
 10
820.3322910446
 20
254.2363532061
 10
821.6227403124
 20
253.2600765868
 10
822.9280249734
 20
252.4601125421
 10
824.2283582426
 20
251.8485877116
 10
825.504028393
 20
251.4347721883
 10
826.7356975657
 20
251.2249389937
 10
827.9046949113
 20
251.2222689852
 10
828.9932996218
 20
251.4268026373
 10
829.9850095595
 20
251.8354394285
 10
830.8647914125
 20
252.4419848414
 10
831.6193085848
 20
253.237244266
 10
832.2371233651
 20
254.2091623799
 10
832.7088703111
 20
255.3430058953
 10
833.0273982201
 20
256.6215869002
 10
833.1878785335
 20
258.02552341
 10
833.1878785335
 20
259.5335331783
 10
833.0273982201
 20
261.1227563141
 10
832.7088703111
 20
262.7691018146
 10
832.2371233651
 20
264.4476127604
 10
831.6193085848
 20
266.1328446363
 10
830.8647914125
 20
267.7992510451
 10
829.9850095595
 20
269.4215709641
 10
828.9932996218
 20
270.9752116772
 10
827.9046949113
 20
272.4366215748
 10
826.7356975657
 20
273.7836471725
 10
825.504028393
 20
274.9958689353
 10
824.2283582426
 20
276.0549108171
 10
822.9280249734
 20
276.9447188224
 10
821.6227403124
 20
277.6518043688
 10
820.3322910446
 20
278.1654487603
 10
819.0762390653
 20
278.4778656714
 10
817.8736248424
 20
278.5843191802
 10
816.7426787814
 20
278.4831955602
 10
815.7005448718
 20
278.1760277421
 10
814.7630208016
 20
277.6674720772
 10
813.9443184798
 20
276.9652377508
 10
813.2568485991
 20
276.0799699195
 10
812.7110325022
 20
275.0250883412
 10
812.3151442048
 20
273.8165839455
 10
812.0751849698
 20
272.472776427
 10
811.9947923346
 20
271.014036538
  0
LINE
  5
214
330
1F
100
AcDbEntity
  8
0
  6
Continuous
 62
     7
370
    25
100
AcDbLine
 10
848.2813910248
 20
118.2169666687
 30
0.0
 11
849.3231007348
 21
118.8183328839
 31
0.0
  0
LINE
  5
215
330
1F
100
AcDbEntity
  8
0
  6
Continuous
 62
     7
370
    25
100
AcDbLine
 10
794.83797766
 20
149.0691924961
 30
0.0
 11
848.2813910248
 21
118.2169666687
 31
0.0
  0
LWPOLYLINE
  5
216
330
1F
100
AcDbEntity
  8
0
  6
Continuous
 62
     7
370
    25
100
AcDbPolyline
 90
       34
 70
   128
 43
0.0
 10
933.3985362683
 20
261.0492561424
 10
933.1852373256
 20
261.1480799513
 10
931.9067191507
 20
261.5957467848
 10
930.5350666541
 20
261.8416210901
 10
929.0830865857
 20
261.8834072049
 10
927.5643356922
 20
261.7207149837
 10
925.9929941415
 20
261.3550634398
 10
924.3837331262
 20
260.7898665633
 10
922.7515778828
 20
260.0304014449
 10
921.1117674052
 20
259.083759006
 10
919.4796121618
 20
257.958777792
 10
917.8703511465
 20
256.6659614492
 10
916.2990095958
 20
255.2173806556
 10
914.7802587023
 20
253.6265604197
 10
913.3282786339
 20
251.9083538015
 10
911.9566261374
 20
250.0788032333
 10
910.6781079624
 20
248.1549907356
 10
909.5046612888
 20
246.1548784275
 10
908.4472422719
 20
244.0971408187
 10
907.5157237482
 20
242.0009904508
 10
906.7188030552
 20
239.885998515
 10
906.0639208267
 20
237.7719121212
 10
905.5571915215
 20
235.6784699244
 10
905.2033463347
 20
233.6252178304
 10
905.0056890235
 20
231.6313265008
 10
904.9660650609
 20
229.7154123616
 10
905.0848444052
 20
227.8953637869
 10
905.3609180455
 20
226.1881740801
 10
905.7917083569
 20
224.6097828112
 10
906.3731931661
 20
223.1749269944
 10
907.0999433062
 20
221.8970034918
 10
907.9651733069
 20
220.7879439309
 10
908.9608047488
 20
219.8581033019
 10
909.4230993096
 20
219.5180812069
  0
LWPOLYLINE
  5
217
330
1F
100
AcDbEntity
  8
0
  6
Continuous
 62
     7
370
    25
100
AcDbPolyline
 90
       22
 70
   128
 43
0.0
 10
784.0129119851
 20
183.0286204276
 10
783.5446438418
 20
183.1606313561
 10
782.6293908532
 20
183.2424687652
 10
781.6456033376
 20
183.1204037589
 10
780.6152574824
 20
182.7971630676
 10
779.5613695114
 20
182.2799673542
 10
778.5074815405
 20
181.5803699165
 10
777.4771356853
 20
180.7139986049
 10
776.4933481697
 20
179.7002067232
 10
775.5780951811
 20
178.5616407065
 10
774.7518219589
 20
177.3237342384
 10
774.0329860814
 20
176.0141401037
 10
773.4376451545
 20
174.6621124713
 10
772.9790981105
 20
173.2978534045
 10
772.6675881327
 20
171.9518381964
 10
772.5100738393
 20
170.6541346025
 10
772.5100738393
 20
169.4337311767
 10
772.6675881327
 20
168.3178897149
 10
772.9790981105
 20
167.3315362715
 10
773.4376451545
 20
166.4967043525
 10
774.0329860814
 20
165.8320427234
 10
774.0681173295
 20
165.8018642572
  0
LWPOLYLINE
  5
218
330
1F
100
AcDbEntity
  8
0
  6
Continuous
 62
     7
370
    25
100
AcDbPolyline
 90
       27
 70
   128
 43
0.0
 10
829.5618262647
 20
153.6460216838
 10
829.8230817024
 20
153.8557212
 10
830.5775988747
 20
154.6509806245
 10
831.195413655
 20
155.6228987384
 10
831.6671606011
 20
156.7567422538
 10
831.98568851
 20
158.0353232588
 10
832.1461688235
 20
159.4392597686
 10
832.1461688235
 20
160.9472695368
 10
831.98568851
 20
162.5364926726
 10
831.6671606011
 20
164.1828381732
 10
831.195413655
 20
165.8613491189
 10
830.5775988747
 20
167.5465809949
 10
829.8230817024
 20
169.2129874036
 10
828.9432998494
 20
170.8353073227
 10
827.9515899118
 20
172.3889480357
 10
826.8629852013
 20
173.8503579333
 10
825.6939878556
 20
175.197383531
 10
824.462318683
 20
176.4096052939
 10
823.1866485325
 20
177.4686471756
 10
821.8863152634
 20
178.3584551809
 10
820.5810306024
 20
179.0655407273
 10
819.2905813345
 20
179.5791851188
 10
818.0345293553
 20
179.8916020299
 10
816.8319151323
 20
179.9980555388
 10
815.7009690713
 20
179.8969319187
 10
814.6588351618
 20
179.5897641007
 10
814.5992521301
 20
179.5647686471
  0
ARC
  5
219
330
1F
100
AcDbEntity
  8
0
  6
Continuous
 62
     7
370
    25
100
AcDbCircle
 10
850.3648104449
 20
120.8288252542
 30
0.0
 40
2.264340674735444
100
AcDbArc
 50
242.6096722366
 51
297.3903277634
  0
ARC
  5
21A
330
1F
100
AcDbEntity
  8
0
  6
Continuous
 62
     7
370
    25
100
AcDbCircle
 10
850.3648104449
 20
284.1369876314
 30
0.0
 40
2.264340674735873
100
AcDbArc
 50
242.6096722366
 51
297.3903277634
  0
ARC
  5
21B
330
1F
100
AcDbEntity
  8
0
  6
Continuous
 62
     7
370
    25
100
AcDbCircle
 10
850.3648104449
 20
122.2379514094
 30
0.0
 40
4.528681349471416
100
AcDbArc
 50
242.6096722366
 51
297.3903277634
  0
LWPOLYLINE
  5
21C
330
1F
100
AcDbEntity
  8
0
  6
Continuous
 62
     7
370
    25
100
AcDbPolyline
 90
       22
 70
   128
 43
0.0
 10
784.0129119844
 20
281.0135178541
 10
783.5446438418
 20
281.1455287824
 10
782.6293908532
 20
281.2273661915
 10
781.6456033376
 20
281.1053011851
 10
780.6152574824
 20
280.7820604939
 10
779.5613695114
 20
280.2648647805
 10
778.5074815405
 20
279.5652673427
 10
777.4771356853
 20
278.6988960312
 10
776.4933481697
 20
277.6851041495
 10
775.5780951811
 20
276.5465381328
 10
774.7518219589
 20
275.3086316647
 10
774.0329860814
 20
273.99903753
 10
773.4376451545
 20
272.6470098976
 10
772.9790981105
 20
271.2827508308
 10
772.6675881327
 20
269.9367356227
 10
772.5100738393
 20
268.6390320288
 10
772.5100738393
 20
267.418628603
 10
772.6675881327
 20
266.3027871412
 10
772.9790981105
 20
265.3164336978
 10
773.4376451545
 20
264.4816017788
 10
774.0329860814
 20
263.8169401497
 10
774.0681173285
 20
263.7867616844
  0
LWPOLYLINE
  5
21D
330
1F
100
AcDbEntity
  8
0
  6
Continuous
 62
     7
370
    25
100
AcDbPolyline
 90
       27
 70
   128
 43
0.0
 10
829.5618262647
 20
251.6309191101
 10
829.8230817024
 20
251.8406186263
 10
830.5775988747
 20
252.6358780508
 10
831.195413655
 20
253.6077961647
 10
831.6671606011
 20
254.7416396801
 10
831.98568851
 20
256.0202206851
 10
832.1461688235
 20
257.4241571949
 10
832.1461688235
 20
258.9321669631
 10
831.98568851
 20
260.5213900989
 10
831.6671606011
 20
262.1677355995
 10
831.195413655
 20
263.8462465452
 10
830.5775988747
 20
265.5314784212
 10
829.8230817024
 20
267.1978848299
 10
828.9432998494
 20
268.820204749
 10
827.9515899118
 20
270.373845462
 10
826.8629852013
 20
271.8352553596
 10
825.6939878556
 20
273.1822809573
 10
824.462318683
 20
274.3945027202
 10
823.1866485325
 20
275.4535446019
 10
821.8863152634
 20
276.3433526072
 10
820.5810306024
 20
277.0504381536
 10
819.2905813345
 20
277.5640825451
 10
818.0345293553
 20
277.8764994562
 10
816.8319151323
 20
277.9829529651
 10
815.7009690713
 20
277.881829345
 10
814.6588351618
 20
277.574661527
 10
814.5992521301
 20
277.5496660734
  0
ENDSEC
  0
SECTION
  2
OBJECTS
  0
DICTIONARY
  5
C
330
0
100
AcDbDictionary
281
     1
  3
ACAD_GROUP
350
D
  3
ACAD_LAYOUT
350
1A
  3
ACAD_MLINESTYLE
350
17
  3
ACAD_PLOTSETTINGS
350
19
  3
ACAD_PLOTSTYLENAME
350
E
  3
ACAD_SCALELIST
350
47
  3
DWGPROPS
350
21E
  0
DICTIONARY
  5
D
102
{ACAD_REACTORS
330
C
102
}
330
C
100
AcDbDictionary
281
     1
  0
DICTIONARY
  5
1A
102
{ACAD_REACTORS
330
C
102
}
330
C
100
AcDbDictionary
281
     1
  3
Layout1
350
1E
  3
Layout2
350
26
  3
Model
350
22
  0
DICTIONARY
  5
17
102
{ACAD_REACTORS
330
C
102
}
330
C
100
AcDbDictionary
281
     1
  3
Standard
350
18
  0
DICTIONARY
  5
19
102
{ACAD_REACTORS
330
C
102
}
330
C
100
AcDbDictionary
281
     1
  0
ACDBDICTIONARYWDFLT
  5
E
102
{ACAD_REACTORS
330
C
102
}
330
C
100
AcDbDictionary
281
     1
  3
Normal
350
F
100
AcDbDictionaryWithDefault
340
F
  0
DICTIONARY
  5
47
102
{ACAD_REACTORS
330
C
102
}
330
C
100
AcDbDictionary
281
     1
  3
A0
350
48
  3
A1
350
49
  3
A2
350
4A
  3
A3
350
4B
  3
A4
350
4C
  3
A5
350
4D
  3
A6
350
4E
  3
A7
350
4F
  3
A8
350
50
  3
A9
350
51
  3
B0
350
52
  3
B1
350
53
  3
B2
350
54
  3
B3
350
55
  3
B4
350
56
  3
B5
350
57
  3
B6
350
58
  0
XRECORD
  5
21E
102
{ACAD_REACTORS
330
C
102
}
330
C
100
AcDbXrecord
280
     1
  1
DWGPROPS COOKIE
  2

  3

  4

  6

  7

  8
86156
  9

300
=
301
=
302
=
303
=
304
=
305
=
306
=
307
=
308
=
309
=
 40
0.0
 41
2460794.079456563
 42
2460794.079459352
  1

 90
        0
  0
LAYOUT
  5
1E
102
{ACAD_REACTORS
330
1A
102
}
330
1A
100
AcDbPlotSettings
  1

  2
none_device
  4

  6

 40
0.0
 41
0.0
 42
0.0
 43
0.0
 44
0.0
 45
0.0
 46
0.0
 47
0.0
 48
0.0
 49
0.0
140
0.0
141
0.0
142
1.0
143
1.0
 70
   688
 72
     1
 73
     0
 74
     5
  7

 75
    16
147
1.0
148
0.0
149
0.0
100
AcDbLayout
  1
Layout1
 70
     1
 71
     1
 10
0.0
 20
0.0
 11
420.0
 21
297.0
 12
0.0
 22
0.0
 32
0.0
 14
1.0000000000E+20
 24
1.0000000000E+20
 34
1.0000000000E+20
 15
-1.0000000000E+20
 25
-1.0000000000E+20
 35
-1.0000000000E+20
146
0.0
 13
0.0
 23
0.0
 33
0.0
 16
1.0
 26
0.0
 36
0.0
 17
0.0
 27
1.0
 37
0.0
 76
     0
330
1B
  0
LAYOUT
  5
26
102
{ACAD_REACTORS
330
1A
102
}
330
1A
100
AcDbPlotSettings
  1

  2
none_device
  4

  6

 40
0.0
 41
0.0
 42
0.0
 43
0.0
 44
0.0
 45
0.0
 46
0.0
 47
0.0
 48
0.0
 49
0.0
140
0.0
141
0.0
142
1.0
143
1.0
 70
   688
 72
     1
 73
     0
 74
     5
  7

 75
    16
147
1.0
148
0.0
149
0.0
100
AcDbLayout
  1
Layout2
 70
     1
 71
     2
 10
0.0
 20
0.0
 11
0.0
 21
0.0
 12
0.0
 22
0.0
 32
0.0
 14
0.0
 24
0.0
 34
0.0
 15
0.0
 25
0.0
 35
0.0
146
0.0
 13
0.0
 23
0.0
 33
0.0
 16
1.0
 26
0.0
 36
0.0
 17
0.0
 27
1.0
 37
0.0
 76
     0
330
23
  0
LAYOUT
  5
22
102
{ACAD_REACTORS
330
1A
102
}
330
1A
100
AcDbPlotSettings
  1

  2
none_device
  4
Letter_(8.50_x_11.00_Inches)
  6

 40
6.35
 41
6.35
 42
6.35000508
 43
6.35000508
 44
215.9
 45
279.4
 46
0.0
 47
0.0
 48
0.0
 49
0.0
140
0.0
141
0.0
142
1.0
143
1.0
 70
  1712
 72
     1
 73
     0
 74
     0
  7

 75
     0
147
1.0
148
0.0
149
0.0
100
AcDbLayout
  1
Model
 70
     1
 71
     0
 10
0.0
 20
0.0
 11
1189.0
 21
841.0
 12
0.0
 22
0.0
 32
0.0
 14
0.0
 24
0.0
 34
0.0
 15
1189.0
 25
841.0
 35
0.0
146
0.0
 13
0.0
 23
0.0
 33
0.0
 16
1.0
 26
0.0
 36
0.0
 17
0.0
 27
1.0
 37
0.0
 76
     0
330
1F
331
29
  0
MLINESTYLE
  5
18
102
{ACAD_REACTORS
330
17
102
}
330
17
100
AcDbMlineStyle
  2
Standard
 70
     0
  3

 62
   256
 51
90.0
 52
90.0
 71
     2
 49
0.5
 62
   256
  6
BYLAYER
 49
-0.5
 62
   256
  6
BYLAYER
  0
ACDBPLACEHOLDER
  5
F
102
{ACAD_REACTORS
330
E
102
}
330
E
  0
SCALE
  5
48
102
{ACAD_REACTORS
330
47
102
}
330
47
100
AcDbScale
 70
     0
300
1:1
140
1.0
141
1.0
290
     1
  0
SCALE
  5
49
102
{ACAD_REACTORS
330
47
102
}
330
47
100
AcDbScale
 70
     0
300
1:2
140
1.0
141
2.0
290
     0
  0
SCALE
  5
4A
102
{ACAD_REACTORS
330
47
102
}
330
47
100
AcDbScale
 70
     0
300
1:4
140
1.0
141
4.0
290
     0
  0
SCALE
  5
4B
102
{ACAD_REACTORS
330
47
102
}
330
47
100
AcDbScale
 70
     0
300
1:5
140
1.0
141
5.0
290
     0
  0
SCALE
  5
4C
102
{ACAD_REACTORS
330
47
102
}
330
47
100
AcDbScale
 70
     0
300
1:8
140
1.0
141
8.0
290
     0
  0
SCALE
  5
4D
102
{ACAD_REACTORS
330
47
102
}
330
47
100
AcDbScale
 70
     0
300
1:10
140
1.0
141
10.0
290
     0
  0
SCALE
  5
4E
102
{ACAD_REACTORS
330
47
102
}
330
47
100
AcDbScale
 70
     0
300
1:16
140
1.0
141
16.0
290
     0
  0
SCALE
  5
4F
102
{ACAD_REACTORS
330
47
102
}
330
47
100
AcDbScale
 70
     0
300
1:20
140
1.0
141
20.0
290
     0
  0
SCALE
  5
50
102
{ACAD_REACTORS
330
47
102
}
330
47
100
AcDbScale
 70
     0
300
1:30
140
1.0
141
30.0
290
     0
  0
SCALE
  5
51
102
{ACAD_REACTORS
330
47
102
}
330
47
100
AcDbScale
 70
     0
300
1:40
140
1.0
141
40.0
290
     0
  0
SCALE
  5
52
102
{ACAD_REACTORS
330
47
102
}
330
47
100
AcDbScale
 70
     0
300
1:50
140
1.0
141
50.0
290
     0
  0
SCALE
  5
53
102
{ACAD_REACTORS
330
47
102
}
330
47
100
AcDbScale
 70
     0
300
1:100
140
1.0
141
100.0
290
     0
  0
SCALE
  5
54
102
{ACAD_REACTORS
330
47
102
}
330
47
100
AcDbScale
 70
     0
300
2:1
140
2.0
141
1.0
290
     0
  0
SCALE
  5
55
102
{ACAD_REACTORS
330
47
102
}
330
47
100
AcDbScale
 70
     0
300
4:1
140
4.0
141
1.0
290
     0
  0
SCALE
  5
56
102
{ACAD_REACTORS
330
47
102
}
330
47
100
AcDbScale
 70
     0
300
8:1
140
8.0
141
1.0
290
     0
  0
SCALE
  5
57
102
{ACAD_REACTORS
330
47
102
}
330
47
100
AcDbScale
 70
     0
300
10:1
140
10.0
141
1.0
290
     0
  0
SCALE
  5
58
102
{ACAD_REACTORS
330
47
102
}
330
47
100
AcDbScale
 70
     0
300
100:1
140
100.0
141
1.0
290
     0
  0
ENDSEC
  0
EOF
